<svg xmlns="http://www.w3.org/2000/svg" version="1.1" xmlns:xlink="http://www.w3.org/1999/xlink" xmlns:svgjs="http://svgjs.dev/svgjs" width="2000" height="186" viewBox="0 0 2000 186"><g transform="matrix(1,0,0,1,-1.2121212121213603,-0.28048349548029705)"><svg viewBox="0 0 396 37" data-background-color="#121212" preserveAspectRatio="xMidYMid meet" height="186" width="2000" xmlns="http://www.w3.org/2000/svg" xmlns:xlink="http://www.w3.org/1999/xlink"><g id="tight-bounds" transform="matrix(1,0,0,1,0.24000000000003752,0.05579510393963005)"><svg viewBox="0 0 395.5199999999999 36.88840979212073" height="36.88840979212073" width="395.5199999999999"><g><svg viewBox="0 0 439.384534129234 40.97946185092851" height="36.88840979212073" width="395.5199999999999"><g transform="matrix(1,0,0,1,43.864534129233995,13.076658955325232)"><svg viewBox="0 0 395.52 14.826143940278042" height="14.826143940278042" width="395.52"><g id="textblocktransform"><svg viewBox="0 0 395.52 14.826143940278042" height="14.826143940278042" width="395.52" id="textblock"><g><svg viewBox="0 0 395.52 14.826143940278042" height="14.826143940278042" width="395.52"><g transform="matrix(1,0,0,1,0,0)"><svg width="395.52" viewBox="-3.17 -36.45 1063.63 40.84" height="14.826143940278042" data-palette-color="#fcfcfc"><path d="M13.13-32.08L13.13-11.11Q13.13-8.42 12.6-6.3 12.06-4.17 10.99-2.7 9.91-1.22 8.33-0.44 6.74 0.34 4.66 0.34L4.66 0.34Q3.71 0.34 2.78 0.21 1.86 0.07 0.83-0.24L0.83-0.24Q0.88-0.93 0.94-1.59 1-2.25 1.07-2.88L1.07-2.88Q1.12-3.25 1.35-3.49 1.59-3.74 2.05-3.74L2.05-3.74Q2.37-3.74 2.87-3.55 3.37-3.37 4.2-3.37L4.2-3.37Q6.4-3.37 7.54-5.18 8.69-6.98 8.69-11.01L8.69-11.01 8.69-32.08 13.13-32.08ZM47.29-16.04L47.29-16.04Q47.29-12.43 46.23-9.42 45.16-6.42 43.22-4.25 41.28-2.08 38.56-0.87 35.84 0.34 32.52 0.34L32.52 0.34Q29.22 0.34 26.49-0.87 23.75-2.08 21.8-4.25 19.85-6.42 18.77-9.42 17.7-12.43 17.7-16.04L17.7-16.04Q17.7-19.63 18.77-22.64 19.85-25.66 21.8-27.84 23.75-30.03 26.49-31.24 29.22-32.45 32.52-32.45L32.52-32.45Q35.84-32.45 38.56-31.24 41.28-30.03 43.22-27.84 45.16-25.66 46.23-22.64 47.29-19.63 47.29-16.04ZM42.75-16.04L42.75-16.04Q42.75-18.97 42.03-21.3 41.31-23.63 39.98-25.26 38.64-26.88 36.75-27.75 34.86-28.61 32.52-28.61L32.52-28.61Q30.17-28.61 28.28-27.75 26.39-26.88 25.05-25.26 23.7-23.63 22.98-21.3 22.26-18.97 22.26-16.04L22.26-16.04Q22.26-13.11 22.98-10.78 23.7-8.45 25.05-6.82 26.39-5.2 28.28-4.35 30.17-3.49 32.52-3.49L32.52-3.49Q34.86-3.49 36.75-4.35 38.64-5.2 39.98-6.82 41.31-8.45 42.03-10.78 42.75-13.11 42.75-16.04ZM52.58-32.08L71.33-32.08 71.33-28.47 57.05-28.47 57.05-17.94 68.55-17.94 68.55-14.45 57.05-14.45 57.05-3.61 71.36-3.61 71.33 0 52.58 0 52.58-32.08ZM105.14-11.69L105.14-11.69Q105.46-11.13 105.72-10.55 105.97-9.96 106.22-9.35L106.22-9.35Q106.46-9.99 106.72-10.57 106.97-11.16 107.27-11.69L107.27-11.69 118.59-31.35Q118.89-31.86 119.23-31.97 119.57-32.08 120.16-32.08L120.16-32.08 123.43-32.08 123.43 0 119.5 0 119.5-23.41Q119.5-23.9 119.53-24.5 119.57-25.1 119.62-25.71L119.62-25.71 108.17-5.59Q107.61-4.59 106.56-4.59L106.56-4.59 105.92-4.59Q104.87-4.59 104.31-5.59L104.31-5.59 92.59-25.68Q92.74-24.46 92.74-23.41L92.74-23.41 92.74 0 88.83 0 88.83-32.08 92.1-32.08Q92.69-32.08 93.02-31.97 93.35-31.86 93.67-31.32L93.67-31.32 105.14-11.69ZM131.04-32.08L149.79-32.08 149.79-28.47 135.51-28.47 135.51-17.94 147.01-17.94 147.01-14.45 135.51-14.45 135.51-3.61 149.82-3.61 149.79 0 131.04 0 131.04-32.08ZM157.85-32.08L157.85-32.08Q158.41-32.08 158.7-31.95 158.99-31.81 159.36-31.32L159.36-31.32 176.79-7.32Q176.74-7.91 176.71-8.48 176.67-9.06 176.67-9.55L176.67-9.55 176.67-32.08 180.58-32.08 180.58 0 178.33 0Q177.82 0 177.46-0.17 177.11-0.34 176.77-0.78L176.77-0.78 159.34-24.71Q159.38-24.15 159.41-23.63 159.43-23.12 159.43-22.66L159.43-22.66 159.43 0 155.53 0 155.53-32.08 157.85-32.08ZM213.29-16.04L213.29-16.04Q213.29-12.43 212.23-9.47 211.16-6.52 209.25-4.41 207.33-2.29 204.63-1.15 201.94 0 198.66 0L198.66 0 187.58 0 187.58-32.08 198.66-32.08Q201.94-32.08 204.63-30.92 207.33-29.76 209.25-27.66 211.16-25.56 212.23-22.6 213.29-19.63 213.29-16.04ZM208.72-16.04L208.72-16.04Q208.72-18.97 208.01-21.28 207.31-23.58 205.99-25.2 204.67-26.81 202.81-27.65 200.96-28.49 198.66-28.49L198.66-28.49 192.05-28.49 192.05-3.59 198.66-3.59Q200.96-3.59 202.81-4.43 204.67-5.27 205.99-6.87 207.31-8.47 208.01-10.79 208.72-13.11 208.72-16.04ZM218.49-32.08L237.24-32.08 237.24-28.47 222.95-28.47 222.95-17.94 234.45-17.94 234.45-14.45 222.95-14.45 222.95-3.61 237.26-3.61 237.24 0 218.49 0 218.49-32.08ZM241.55-32.08L261.57-32.08 261.57-30.44Q261.57-29.66 261.11-28.98L261.11-28.98 246.1-3.61 261.26-3.61 261.26 0 240.72 0 240.72-1.73Q240.72-2.1 240.85-2.42 240.97-2.73 241.16-3.03L241.16-3.03 256.15-28.47 241.55-28.47 241.55-32.08ZM264.6-12.3L264.6-15.94 276.27-15.94 276.27-12.3 264.6-12.3ZM305.81-32.08L305.81 0 301.34 0 301.34-14.55 285.96-14.55 285.96 0 281.49 0 281.49-32.08 285.96-32.08 285.96-17.8 301.34-17.8 301.34-32.08 305.81-32.08ZM325.26-3.52L325.26-3.52Q327.19-3.52 328.72-4.19 330.24-4.86 331.29-6.07 332.34-7.28 332.89-8.94 333.44-10.6 333.44-12.6L333.44-12.6 333.44-32.08 337.89-32.08 337.89-12.6Q337.89-9.81 337.01-7.45 336.13-5.08 334.5-3.34 332.88-1.61 330.54-0.62 328.19 0.37 325.26 0.37L325.26 0.37Q322.33 0.37 320-0.62 317.67-1.61 316.03-3.34 314.4-5.08 313.52-7.45 312.64-9.81 312.64-12.6L312.64-12.6 312.64-32.08 317.08-32.08 317.08-12.62Q317.08-10.62 317.63-8.95 318.18-7.28 319.23-6.07 320.28-4.86 321.81-4.19 323.33-3.52 325.26-3.52ZM370.23-3.1L370.23-3.1Q367.89-1.37 365.24-0.51 362.59 0.34 359.49 0.34L359.49 0.34Q355.75 0.34 352.74-0.85 349.72-2.05 347.6-4.21 345.48-6.37 344.33-9.39 343.18-12.4 343.18-16.04L343.18-16.04Q343.18-19.7 344.29-22.72 345.4-25.73 347.47-27.89 349.53-30.05 352.46-31.25 355.39-32.45 359.03-32.45L359.03-32.45Q360.88-32.45 362.46-32.17 364.03-31.88 365.37-31.36 366.72-30.83 367.85-30.08 368.99-29.32 369.96-28.39L369.96-28.39 368.72-26.39Q368.42-25.9 367.94-25.78 367.45-25.66 366.89-26L366.89-26Q366.32-26.32 365.65-26.77 364.98-27.22 364.05-27.62 363.13-28.03 361.86-28.32 360.59-28.61 358.85-28.61L358.85-28.61Q356.32-28.61 354.25-27.73 352.19-26.86 350.74-25.22 349.28-23.58 348.5-21.25 347.72-18.92 347.72-16.04L347.72-16.04Q347.72-13.04 348.54-10.66 349.36-8.28 350.88-6.63 352.41-4.98 354.56-4.11 356.71-3.25 359.37-3.25L359.37-3.25Q361.42-3.25 363.03-3.72 364.64-4.2 366.2-5.05L366.2-5.05 366.2-12.08 361.59-12.08Q361.15-12.08 360.88-12.33 360.61-12.57 360.61-12.94L360.61-12.94 360.61-15.45 370.23-15.45 370.23-3.1ZM400.58-32.08L400.58 0 396.11 0 396.11-14.55 380.73-14.55 380.73 0 376.26 0 376.26-32.08 380.73-32.08 380.73-17.8 396.11-17.8 396.11-32.08 400.58-32.08ZM407.53-32.08L426.28-32.08 426.28-28.47 412-28.47 412-17.94 423.5-17.94 423.5-14.45 412-14.45 412-3.61 426.31-3.61 426.28 0 407.53 0 407.53-32.08ZM448.96-29.1L447.86-27.03Q447.49-26.34 446.86-26.34L446.86-26.34Q446.49-26.34 445.99-26.72 445.49-27.1 444.77-27.55 444.05-28 443.04-28.38 442.03-28.76 440.61-28.76L440.61-28.76Q439.27-28.76 438.25-28.38 437.24-28 436.57-27.33 435.9-26.66 435.56-25.77 435.21-24.88 435.21-23.85L435.21-23.85Q435.21-22.51 435.84-21.63 436.46-20.75 437.47-20.13 438.49-19.51 439.78-19.04 441.07-18.58 442.42-18.09 443.76-17.6 445.05-16.98 446.35-16.36 447.36-15.42 448.37-14.48 449-13.11 449.62-11.74 449.62-9.77L449.62-9.77Q449.62-7.64 448.93-5.8 448.25-3.96 446.94-2.59 445.64-1.22 443.73-0.44 441.83 0.34 439.39 0.34L439.39 0.34Q436.43 0.34 433.96-0.79 431.48-1.93 429.75-3.86L429.75-3.86 431.04-5.96Q431.21-6.23 431.47-6.38 431.72-6.54 432.06-6.54L432.06-6.54Q432.53-6.54 433.1-6.04 433.68-5.54 434.53-4.94 435.38-4.35 436.59-3.85 437.8-3.34 439.49-3.34L439.49-3.34Q440.9-3.34 442-3.76 443.1-4.17 443.87-4.93 444.64-5.69 445.04-6.75 445.44-7.81 445.44-9.11L445.44-9.11Q445.44-10.55 444.82-11.47 444.2-12.4 443.19-13.02 442.17-13.65 440.88-14.07 439.58-14.5 438.24-14.97 436.9-15.43 435.6-16.03 434.31-16.63 433.3-17.6 432.28-18.58 431.66-20.02 431.04-21.46 431.04-23.61L431.04-23.61Q431.04-25.29 431.67-26.89 432.31-28.49 433.52-29.72 434.73-30.96 436.5-31.7 438.27-32.45 440.56-32.45L440.56-32.45Q443.12-32.45 445.26-31.59 447.4-30.74 448.96-29.1L448.96-29.1ZM454.86 0L454.86 0ZM461.04-2.61L461.04-2.61Q461.04-2 460.8-1.45 460.55-0.9 460.13-0.5 459.7-0.1 459.15 0.15 458.6 0.39 457.99 0.39L457.99 0.39Q457.38 0.39 456.84 0.15 456.31-0.1 455.9-0.5 455.5-0.9 455.26-1.45 455.01-2 455.01-2.61L455.01-2.61Q455.01-3.25 455.26-3.8 455.5-4.35 455.9-4.76 456.31-5.18 456.84-5.42 457.38-5.66 457.99-5.66L457.99-5.66Q458.6-5.66 459.15-5.42 459.7-5.18 460.13-4.76 460.55-4.35 460.8-3.8 461.04-3.25 461.04-2.61ZM460.9-19.17L460.9-19.17Q460.9-18.55 460.65-18.01 460.41-17.46 459.98-17.05 459.55-16.65 459-16.41 458.45-16.16 457.84-16.16L457.84-16.16Q457.23-16.16 456.7-16.41 456.16-16.65 455.76-17.05 455.35-17.46 455.11-18.01 454.86-18.55 454.86-19.17L454.86-19.17Q454.86-19.8 455.11-20.35 455.35-20.9 455.76-21.31 456.16-21.73 456.7-21.97 457.23-22.22 457.84-22.22L457.84-22.22Q458.45-22.22 459-21.97 459.55-21.73 459.98-21.31 460.41-20.9 460.65-20.35 460.9-19.8 460.9-19.17ZM496.61-29.1L495.51-27.03Q495.14-26.34 494.51-26.34L494.51-26.34Q494.14-26.34 493.64-26.72 493.14-27.1 492.42-27.55 491.7-28 490.69-28.38 489.67-28.76 488.26-28.76L488.26-28.76Q486.92-28.76 485.9-28.38 484.89-28 484.22-27.33 483.55-26.66 483.2-25.77 482.86-24.88 482.86-23.85L482.86-23.85Q482.86-22.51 483.49-21.63 484.11-20.75 485.12-20.13 486.13-19.51 487.43-19.04 488.72-18.58 490.06-18.09 491.41-17.6 492.7-16.98 494-16.36 495.01-15.42 496.02-14.48 496.64-13.11 497.27-11.74 497.27-9.77L497.27-9.77Q497.27-7.64 496.58-5.8 495.9-3.96 494.59-2.59 493.29-1.22 491.38-0.44 489.48 0.34 487.04 0.34L487.04 0.34Q484.08 0.34 481.61-0.79 479.13-1.93 477.39-3.86L477.39-3.86 478.69-5.96Q478.86-6.23 479.12-6.38 479.37-6.54 479.71-6.54L479.71-6.54Q480.18-6.54 480.75-6.04 481.32-5.54 482.18-4.94 483.03-4.35 484.24-3.85 485.45-3.34 487.14-3.34L487.14-3.34Q488.55-3.34 489.65-3.76 490.75-4.17 491.52-4.93 492.29-5.69 492.69-6.75 493.09-7.81 493.09-9.11L493.09-9.11Q493.09-10.55 492.47-11.47 491.85-12.4 490.83-13.02 489.82-13.65 488.53-14.07 487.23-14.5 485.89-14.97 484.55-15.43 483.25-16.03 481.96-16.63 480.95-17.6 479.93-18.58 479.31-20.02 478.69-21.46 478.69-23.61L478.69-23.61Q478.69-25.29 479.32-26.89 479.96-28.49 481.17-29.72 482.37-30.96 484.14-31.7 485.91-32.45 488.21-32.45L488.21-32.45Q490.77-32.45 492.91-31.59 495.05-30.74 496.61-29.1L496.61-29.1ZM502.56-32.08L521.31-32.08 521.31-28.47 507.03-28.47 507.03-17.94 518.53-17.94 518.53-14.45 507.03-14.45 507.03-3.61 521.34-3.61 521.31 0 502.56 0 502.56-32.08ZM529.37-32.08L529.37-32.08Q529.93-32.08 530.22-31.95 530.51-31.81 530.88-31.32L530.88-31.32 548.31-7.32Q548.26-7.91 548.23-8.48 548.19-9.06 548.19-9.55L548.19-9.55 548.19-32.08 552.1-32.08 552.1 0 549.85 0Q549.34 0 548.98-0.17 548.63-0.34 548.29-0.78L548.29-0.78 530.86-24.71Q530.9-24.15 530.93-23.63 530.95-23.12 530.95-22.66L530.95-22.66 530.95 0 527.05 0 527.05-32.08 529.37-32.08ZM564.23-32.08L564.23 0 559.78 0 559.78-32.08 564.23-32.08ZM599.65-16.04L599.65-16.04Q599.65-12.43 598.59-9.42 597.53-6.42 595.58-4.25 593.64-2.08 590.92-0.87 588.2 0.34 584.88 0.34L584.88 0.34Q581.58 0.34 578.85-0.87 576.11-2.08 574.16-4.25 572.21-6.42 571.13-9.42 570.06-12.43 570.06-16.04L570.06-16.04Q570.06-19.63 571.13-22.64 572.21-25.66 574.16-27.84 576.11-30.03 578.85-31.24 581.58-32.45 584.88-32.45L584.88-32.45Q588.2-32.45 590.92-31.24 593.64-30.03 595.58-27.84 597.53-25.66 598.59-22.64 599.65-19.63 599.65-16.04ZM595.11-16.04L595.11-16.04Q595.11-18.97 594.39-21.3 593.67-23.63 592.34-25.26 591.01-26.88 589.11-27.75 587.22-28.61 584.88-28.61L584.88-28.61Q582.54-28.61 580.64-27.75 578.75-26.88 577.41-25.26 576.07-23.63 575.35-21.3 574.63-18.97 574.63-16.04L574.63-16.04Q574.63-13.11 575.35-10.78 576.07-8.45 577.41-6.82 578.75-5.2 580.64-4.35 582.54-3.49 584.88-3.49L584.88-3.49Q587.22-3.49 589.11-4.35 591.01-5.2 592.34-6.82 593.67-8.45 594.39-10.78 595.11-13.11 595.11-16.04ZM612.42-13.33L609.44-13.33 609.44 0 604.99 0 604.99-32.08 613.78-32.08Q616.71-32.08 618.85-31.46 620.98-30.83 622.36-29.68 623.74-28.52 624.4-26.87 625.06-25.22 625.06-23.17L625.06-23.17Q625.06-21.48 624.56-20.02 624.06-18.55 623.12-17.38 622.18-16.21 620.81-15.37 619.45-14.53 617.71-14.09L617.71-14.09Q618.13-13.82 618.49-13.49 618.86-13.16 619.2-12.7L619.2-12.7 627.82 0 623.87 0Q622.72 0 622.08-0.9L622.08-0.9 614.49-12.33Q614.12-12.87 613.7-13.1 613.27-13.33 612.42-13.33L612.42-13.33ZM609.44-28.59L609.44-16.58 613.61-16.58Q615.37-16.58 616.7-17.03 618.03-17.48 618.93-18.31 619.84-19.14 620.29-20.3 620.74-21.46 620.74-22.85L620.74-22.85Q620.74-28.59 613.78-28.59L613.78-28.59 609.44-28.59ZM652.64-11.96L647.88-11.96 647.88 0 643.44 0 643.44-32.08 652.64-32.08Q655.57-32.08 657.74-31.37 659.9-30.66 661.31-29.37 662.73-28.08 663.42-26.23 664.12-24.39 664.12-22.12L664.12-22.12Q664.12-19.87 663.37-18.02 662.63-16.16 661.18-14.81 659.73-13.45 657.59-12.71 655.45-11.96 652.64-11.96L652.64-11.96ZM647.88-28.59L647.88-15.48 652.64-15.48Q654.35-15.48 655.67-15.97 656.99-16.46 657.88-17.33 658.77-18.21 659.22-19.43 659.68-20.65 659.68-22.12L659.68-22.12Q659.68-25.2 657.94-26.89 656.21-28.59 652.64-28.59L652.64-28.59 647.88-28.59ZM676.69-13.33L673.71-13.33 673.71 0 669.27 0 669.27-32.08 678.06-32.08Q680.99-32.08 683.12-31.46 685.26-30.83 686.64-29.68 688.02-28.52 688.68-26.87 689.34-25.22 689.34-23.17L689.34-23.17Q689.34-21.48 688.84-20.02 688.34-18.55 687.4-17.38 686.46-16.21 685.09-15.37 683.72-14.53 681.99-14.09L681.99-14.09Q682.4-13.82 682.77-13.49 683.14-13.16 683.48-12.7L683.48-12.7 692.1 0 688.14 0Q686.99 0 686.36-0.9L686.36-0.9 678.77-12.33Q678.4-12.87 677.97-13.1 677.54-13.33 676.69-13.33L676.69-13.33ZM673.71-28.59L673.71-16.58 677.89-16.58Q679.64-16.58 680.97-17.03 682.31-17.48 683.21-18.31 684.11-19.14 684.56-20.3 685.02-21.46 685.02-22.85L685.02-22.85Q685.02-28.59 678.06-28.59L678.06-28.59 673.71-28.59ZM724.17-16.04L724.17-16.04Q724.17-12.43 723.11-9.42 722.05-6.42 720.11-4.25 718.17-2.08 715.45-0.87 712.72 0.34 709.4 0.34L709.4 0.34Q706.11 0.34 703.37-0.87 700.64-2.08 698.68-4.25 696.73-6.42 695.66-9.42 694.58-12.43 694.58-16.04L694.58-16.04Q694.58-19.63 695.66-22.64 696.73-25.66 698.68-27.84 700.64-30.03 703.37-31.24 706.11-32.45 709.4-32.45L709.4-32.45Q712.72-32.45 715.45-31.24 718.17-30.03 720.11-27.84 722.05-25.66 723.11-22.64 724.17-19.63 724.17-16.04ZM719.63-16.04L719.63-16.04Q719.63-18.97 718.91-21.3 718.19-23.63 716.86-25.26 715.53-26.88 713.64-27.75 711.75-28.61 709.4-28.61L709.4-28.61Q707.06-28.61 705.17-27.75 703.27-26.88 701.93-25.26 700.59-23.63 699.87-21.3 699.15-18.97 699.15-16.04L699.15-16.04Q699.15-13.11 699.87-10.78 700.59-8.45 701.93-6.82 703.27-5.2 705.17-4.35 707.06-3.49 709.4-3.49L709.4-3.49Q711.75-3.49 713.64-4.35 715.53-5.2 716.86-6.82 718.19-8.45 718.91-10.78 719.63-13.11 719.63-16.04ZM755.03-16.04L755.03-16.04Q755.03-12.43 753.97-9.47 752.91-6.52 750.99-4.41 749.07-2.29 746.38-1.15 743.68 0 740.41 0L740.41 0 729.32 0 729.32-32.08 740.41-32.08Q743.68-32.08 746.38-30.92 749.07-29.76 750.99-27.66 752.91-25.56 753.97-22.6 755.03-19.63 755.03-16.04ZM750.46-16.04L750.46-16.04Q750.46-18.97 749.76-21.28 749.05-23.58 747.73-25.2 746.41-26.81 744.56-27.65 742.7-28.49 740.41-28.49L740.41-28.49 733.79-28.49 733.79-3.59 740.41-3.59Q742.7-3.59 744.56-4.43 746.41-5.27 747.73-6.87 749.05-8.47 749.76-10.79 750.46-13.11 750.46-16.04ZM772.73-3.52L772.73-3.52Q774.66-3.52 776.18-4.19 777.71-4.86 778.76-6.07 779.81-7.28 780.36-8.94 780.91-10.6 780.91-12.6L780.91-12.6 780.91-32.08 785.35-32.08 785.35-12.6Q785.35-9.81 784.47-7.45 783.59-5.08 781.97-3.34 780.34-1.61 778-0.62 775.66 0.37 772.73 0.37L772.73 0.37Q769.8 0.37 767.47-0.62 765.13-1.61 763.5-3.34 761.86-5.08 760.98-7.45 760.11-9.81 760.11-12.6L760.11-12.6 760.11-32.08 764.55-32.08 764.55-12.62Q764.55-10.62 765.1-8.95 765.65-7.28 766.7-6.07 767.75-4.86 769.27-4.19 770.8-3.52 772.73-3.52ZM812.06-6.69L812.06-6.69Q812.4-6.69 812.69-6.4L812.69-6.4 814.45-4.49Q812.72-2.2 810.18-0.93 807.64 0.34 804.1 0.34L804.1 0.34Q800.97 0.34 798.45-0.85 795.92-2.05 794.12-4.21 792.33-6.37 791.37-9.39 790.4-12.4 790.4-16.04L790.4-16.04Q790.4-19.68 791.43-22.69 792.45-25.71 794.31-27.88 796.16-30.05 798.75-31.25 801.34-32.45 804.46-32.45L804.46-32.45Q807.56-32.45 809.92-31.35 812.28-30.25 814.03-28.37L814.03-28.37 812.57-26.32Q812.42-26.1 812.2-25.95 811.98-25.81 811.64-25.81L811.64-25.81Q811.23-25.81 810.73-26.25 810.23-26.68 809.42-27.21 808.61-27.73 807.42-28.17 806.22-28.61 804.44-28.61L804.44-28.61Q802.34-28.61 800.59-27.76 798.85-26.9 797.59-25.28 796.33-23.66 795.64-21.33 794.94-18.99 794.94-16.04L794.94-16.04Q794.94-13.06 795.67-10.72 796.41-8.37 797.68-6.76 798.95-5.15 800.67-4.3 802.39-3.44 804.37-3.44L804.37-3.44Q805.59-3.44 806.55-3.61 807.52-3.78 808.33-4.14 809.15-4.49 809.87-5.04 810.59-5.59 811.3-6.35L811.3-6.35Q811.69-6.69 812.06-6.69ZM816.01-32.08L839.2-32.08 839.2-28.37 829.85-28.37 829.85 0 825.38 0 825.38-28.37 816.01-28.37 816.01-32.08ZM880.19-16.04L880.19-16.04Q880.19-12.43 879.13-9.47 878.06-6.52 876.15-4.41 874.23-2.29 871.53-1.15 868.84 0 865.56 0L865.56 0 854.48 0 854.48-32.08 865.56-32.08Q868.84-32.08 871.53-30.92 874.23-29.76 876.15-27.66 878.06-25.56 879.13-22.6 880.19-19.63 880.19-16.04ZM875.62-16.04L875.62-16.04Q875.62-18.97 874.91-21.28 874.21-23.58 872.89-25.2 871.57-26.81 869.71-27.65 867.86-28.49 865.56-28.49L865.56-28.49 858.95-28.49 858.95-3.59 865.56-3.59Q867.86-3.59 869.71-4.43 871.57-5.27 872.89-6.87 874.21-8.47 874.91-10.79 875.62-13.11 875.62-16.04ZM885.39-32.08L904.14-32.08 904.14-28.47 889.85-28.47 889.85-17.94 901.35-17.94 901.35-14.45 889.85-14.45 889.85-3.61 904.16-3.61 904.14 0 885.39 0 885.39-32.08ZM926.81-29.1L925.72-27.03Q925.35-26.34 924.71-26.34L924.71-26.34Q924.35-26.34 923.85-26.72 923.35-27.1 922.63-27.55 921.91-28 920.89-28.38 919.88-28.76 918.46-28.76L918.46-28.76Q917.12-28.76 916.11-28.38 915.1-28 914.42-27.33 913.75-26.66 913.41-25.77 913.07-24.88 913.07-23.85L913.07-23.85Q913.07-22.51 913.69-21.63 914.31-20.75 915.33-20.13 916.34-19.51 917.63-19.04 918.93-18.58 920.27-18.09 921.61-17.6 922.91-16.98 924.2-16.36 925.22-15.42 926.23-14.48 926.85-13.11 927.47-11.74 927.47-9.77L927.47-9.77Q927.47-7.64 926.79-5.8 926.11-3.96 924.8-2.59 923.49-1.22 921.59-0.44 919.69 0.34 917.24 0.34L917.24 0.34Q914.29 0.34 911.81-0.79 909.33-1.93 907.6-3.86L907.6-3.86 908.89-5.96Q909.07-6.23 909.32-6.38 909.58-6.54 909.92-6.54L909.92-6.54Q910.38-6.54 910.96-6.04 911.53-5.54 912.39-4.94 913.24-4.35 914.45-3.85 915.66-3.34 917.34-3.34L917.34-3.34Q918.76-3.34 919.86-3.76 920.95-4.17 921.72-4.93 922.49-5.69 922.9-6.75 923.3-7.81 923.3-9.11L923.3-9.11Q923.3-10.55 922.68-11.47 922.05-12.4 921.04-13.02 920.03-13.65 918.73-14.07 917.44-14.5 916.1-14.97 914.75-15.43 913.46-16.03 912.17-16.63 911.15-17.6 910.14-18.58 909.52-20.02 908.89-21.46 908.89-23.61L908.89-23.61Q908.89-25.29 909.53-26.89 910.16-28.49 911.37-29.72 912.58-30.96 914.35-31.7 916.12-32.45 918.42-32.45L918.42-32.45Q920.98-32.45 923.12-31.59 925.25-30.74 926.81-29.1L926.81-29.1ZM937.75-32.08L937.75 0 933.31 0 933.31-32.08 937.75-32.08ZM970.75-3.1L970.75-3.1Q968.41-1.37 965.76-0.51 963.11 0.34 960.01 0.34L960.01 0.34Q956.28 0.34 953.26-0.85 950.25-2.05 948.12-4.21 946-6.37 944.85-9.39 943.7-12.4 943.7-16.04L943.7-16.04Q943.7-19.7 944.81-22.72 945.93-25.73 947.99-27.89 950.05-30.05 952.98-31.25 955.91-32.45 959.55-32.45L959.55-32.45Q961.4-32.45 962.98-32.17 964.55-31.88 965.9-31.36 967.24-30.83 968.37-30.08 969.51-29.32 970.49-28.39L970.49-28.39 969.24-26.39Q968.95-25.9 968.46-25.78 967.97-25.66 967.41-26L967.41-26Q966.85-26.32 966.18-26.77 965.51-27.22 964.58-27.62 963.65-28.03 962.38-28.32 961.11-28.61 959.38-28.61L959.38-28.61Q956.84-28.61 954.78-27.73 952.71-26.86 951.26-25.22 949.81-23.58 949.03-21.25 948.24-18.92 948.24-16.04L948.24-16.04Q948.24-13.04 949.06-10.66 949.88-8.28 951.41-6.63 952.93-4.98 955.08-4.11 957.23-3.25 959.89-3.25L959.89-3.25Q961.94-3.25 963.55-3.72 965.16-4.2 966.73-5.05L966.73-5.05 966.73-12.08 962.11-12.08Q961.67-12.08 961.4-12.33 961.14-12.57 961.14-12.94L961.14-12.94 961.14-15.45 970.75-15.45 970.75-3.1ZM979.3-32.08L979.3-32.08Q979.86-32.08 980.15-31.95 980.44-31.81 980.81-31.32L980.81-31.32 998.24-7.32Q998.19-7.91 998.16-8.48 998.12-9.06 998.12-9.55L998.12-9.55 998.12-32.08 1002.03-32.08 1002.03 0 999.78 0Q999.27 0 998.91-0.17 998.56-0.34 998.22-0.78L998.22-0.78 980.79-24.71Q980.84-24.15 980.86-23.63 980.88-23.12 980.88-22.66L980.88-22.66 980.88 0 976.98 0 976.98-32.08 979.3-32.08ZM1009.18-32.08L1027.93-32.08 1027.93-28.47 1013.65-28.47 1013.65-17.94 1025.14-17.94 1025.14-14.45 1013.65-14.45 1013.65-3.61 1027.95-3.61 1027.93 0 1009.18 0 1009.18-32.08ZM1041.06-13.33L1038.08-13.33 1038.08 0 1033.64 0 1033.64-32.08 1042.43-32.08Q1045.36-32.08 1047.49-31.46 1049.63-30.83 1051.01-29.68 1052.39-28.52 1053.05-26.87 1053.71-25.22 1053.71-23.17L1053.71-23.17Q1053.71-21.48 1053.21-20.02 1052.71-18.55 1051.77-17.38 1050.83-16.21 1049.46-15.37 1048.09-14.53 1046.36-14.09L1046.36-14.09Q1046.77-13.82 1047.14-13.49 1047.5-13.16 1047.85-12.7L1047.85-12.7 1056.46 0 1052.51 0Q1051.36 0 1050.73-0.9L1050.73-0.9 1043.13-12.33Q1042.77-12.87 1042.34-13.1 1041.91-13.33 1041.06-13.33L1041.06-13.33ZM1038.08-28.59L1038.08-16.58 1042.26-16.58Q1044.01-16.58 1045.34-17.03 1046.67-17.48 1047.58-18.31 1048.48-19.14 1048.93-20.3 1049.38-21.46 1049.38-22.85L1049.38-22.85Q1049.38-28.59 1042.43-28.59L1042.43-28.59 1038.08-28.59Z" opacity="1" transform="matrix(1,0,0,1,0,0)" fill="#fcfcfc" class="wordmark-text-0" data-fill-palette-color="primary" id="text-0"></path></svg></g></svg></g></svg></g></svg></g><g><svg viewBox="0 0 40.97946185092851 40.97946185092851" height="40.97946185092851" width="40.97946185092851"><g><svg xmlns="http://www.w3.org/2000/svg" xmlns:xlink="http://www.w3.org/1999/xlink" version="1.1" x="0" y="0" viewBox="4.5 4 92 92" enable-background="new 0 0 100 100" xml:space="preserve" height="40.97946185092851" width="40.97946185092851" class="icon-icon-0" data-fill-palette-color="accent" id="icon-0"><path fill="#00cc66" d="M4.5 4V96H96.5V4zM50.5 10.472L83.336 76.143C75.634 85.797 63.781 92 50.5 92S25.366 85.797 17.665 76.143zM15.035 72.457A41.73 41.73 0 0 1 8.5 50C8.5 27.956 25.575 9.836 47.192 8.143zM53.808 8.143C75.425 9.836 92.5 27.956 92.5 50A41.73 41.73 0 0 1 85.965 72.457zM8.5 8H31.774A46.26 46.26 0 0 0 8.5 31.274zM12.981 76.564L8.5 85.527V68.726A46 46 0 0 0 12.981 76.564M9.736 92L15.713 80.046A46.2 46.2 0 0 0 31.774 92zM69.226 92A46.2 46.2 0 0 0 85.288 80.046L91.264 92zM92.5 85.527L88.019 76.564A46 46 0 0 0 92.5 68.725zM69.226 8H92.5V31.274A46.26 46.26 0 0 0 69.226 8" data-fill-palette-color="accent"></path></svg></g></svg></g></svg></g><defs></defs></svg><rect width="395.5199999999999" height="36.88840979212073" fill="none" stroke="none" visibility="hidden"></rect></g></svg></g></svg>