<svg xmlns="http://www.w3.org/2000/svg" version="1.1" xmlns:xlink="http://www.w3.org/1999/xlink" width="2000" height="136" viewBox="0 0 2000 136"><g transform="matrix(1,0,0,1,4.405047946690274,9.90394117672517)"><svg viewBox="0 0 396 27" data-background-color="#ffffff" preserveAspectRatio="xMidYMid meet" height="136" width="2000" xmlns="http://www.w3.org/2000/svg" xmlns:xlink="http://www.w3.org/1999/xlink"><g id="tight-bounds" transform="matrix(1,0,0,1,0.26120158437507257,0.09185849554066294)"><svg viewBox="0 0 395.5199999999999 26.833559096756915" height="26.833559096756915" width="395.5199999999999"><g><svg viewBox="0 0 441.46013019525344 29.95030969977836" height="26.833559096756915" width="395.5199999999999"><g><rect width="1.8056993645740078" height="22.926392907515613" x="39.40746914331296" y="3.511958396131373" fill="#141414" opacity="1" stroke-width="0" stroke="transparent" fill-opacity="1" class="rect-yte-0" data-fill-palette-color="primary" rx="1%" id="yte-0" data-palette-color="#141414"></rect></g><g transform="matrix(1,0,0,1,45.94013019525348,3.5689892242595196)"><svg viewBox="0 0 395.52 22.81233125125932" height="22.81233125125932" width="395.52"><g id="textblocktransform"><svg viewBox="0 0 395.52 22.81233125125932" height="22.81233125125932" width="395.52" id="textblock"><g><svg viewBox="0 0 395.52 22.81233125125932" height="22.81233125125932" width="395.52"><g transform="matrix(1,0,0,1,0,0)"><svg width="395.52" viewBox="-1 -42 993.52 58.25" height="22.81233125125932" data-palette-color="#141414"><path d="M9.6 12.25L9.6 12.25Q8.05 12.25 6.18 12 4.3 11.75 3 11.4L3 11.4 3 7.45Q3.9 7.75 4.93 7.98 5.95 8.2 7.03 8.35 8.1 8.5 9.1 8.5L9.1 8.5Q11.35 8.5 12.73 7.78 14.1 7.05 14.73 5.58 15.35 4.1 15.35 1.85L15.35 1.85 15.35-23.05 6.6-23.7 6.6-26.8 19.85-26.8 19.85 2.6Q19.85 7.25 17.18 9.75 14.5 12.25 9.6 12.25ZM17.1-31.65L17.1-31.65Q15.8-31.65 14.9-32.45 14-33.25 14-34.85L14-34.85Q14-36.45 14.88-37.23 15.75-38 17.1-38L17.1-38Q18.4-38 19.33-37.23 20.25-36.45 20.25-34.85L20.25-34.85Q20.25-33.2 19.3-32.43 18.35-31.65 17.1-31.65ZM45.05 0.5L45.05 0.5Q42.45 0.5 40.2-0.35 37.95-1.2 36.27-2.95 34.6-4.7 33.67-7.33 32.75-9.95 32.75-13.5L32.75-13.5Q32.75-18.15 34.32-21.2 35.9-24.25 38.65-25.78 41.4-27.3 44.9-27.3L44.9-27.3Q48.4-27.3 51.2-25.78 54-24.25 55.62-21.18 57.25-18.1 57.25-13.35L57.25-13.35Q57.25-9.85 56.32-7.25 55.4-4.65 53.77-2.93 52.15-1.2 49.92-0.35 47.7 0.5 45.05 0.5ZM45-3.15L45-3.15Q47.6-3.15 49.3-4.4 51-5.65 51.85-7.98 52.7-10.3 52.7-13.45L52.7-13.45Q52.7-16.65 51.85-18.93 51-21.2 49.27-22.43 47.55-23.65 44.95-23.65L44.95-23.65Q41.05-23.65 39.12-20.93 37.2-18.2 37.2-13.45L37.2-13.45Q37.2-10.3 38.07-7.98 38.95-5.65 40.67-4.4 42.4-3.15 45-3.15ZM76.84 0.5L76.84 0.5Q72.55 0.5 69.45-1.1 66.34-2.7 64.67-5.78 63-8.85 63-13.3L63-13.3Q63-17.7 64.59-20.83 66.2-23.95 69.05-25.63 71.9-27.3 75.7-27.3L75.7-27.3Q79.2-27.3 81.72-25.75 84.25-24.2 85.62-21.38 87-18.55 87-14.6L87-14.6 87-12.55 67.55-12.55Q67.65-9.05 68.87-7 70.09-4.95 72.22-4.08 74.34-3.2 77.15-3.2L77.15-3.2Q79.34-3.2 81.5-3.8 83.65-4.4 85.8-5.4L85.8-5.4 85.8-1.4Q83.5-0.4 81.2 0.05 78.9 0.5 76.84 0.5ZM67.65-16.15L82.5-16.15Q82.4-18.5 81.59-20.18 80.8-21.85 79.32-22.75 77.84-23.65 75.7-23.65L75.7-23.65Q72.34-23.65 70.27-21.63 68.2-19.6 67.65-16.15L67.65-16.15ZM126.49 0L122.49 0 122.49-26.8 125.59-26.8 126.24-23.85 126.49-23.85Q127.14-25.2 127.89-25.95 128.64-26.7 129.52-27 130.39-27.3 131.44-27.3L131.44-27.3Q133.49-27.3 134.62-26.33 135.74-25.35 136.34-23.45L136.34-23.45 136.49-23.45Q137.34-25.3 138.62-26.3 139.89-27.3 141.99-27.3L141.99-27.3Q144.04-27.3 145.27-26.25 146.49-25.2 147.02-23.05 147.54-20.9 147.54-17.5L147.54-17.5 147.54 0 143.54 0 143.54-16.75Q143.54-18.85 143.37-20.33 143.19-21.8 142.64-22.6 142.09-23.4 140.84-23.4L140.84-23.4Q139.64-23.4 138.79-22.28 137.94-21.15 137.49-18.95 137.04-16.75 137.04-13.4L137.04-13.4 137.04 0 133.04 0 133.04-16.75Q133.04-18.9 132.79-20.38 132.54-21.85 131.92-22.63 131.29-23.4 130.04-23.4L130.04-23.4Q128.74-23.4 127.94-22.18 127.14-20.95 126.82-18.73 126.49-16.5 126.49-13.4L126.49-13.4 126.49 0ZM166.84 0.5L166.84 0.5Q162.54 0.5 159.44-1.1 156.34-2.7 154.66-5.78 152.99-8.85 152.99-13.3L152.99-13.3Q152.99-17.7 154.59-20.83 156.19-23.95 159.04-25.63 161.89-27.3 165.69-27.3L165.69-27.3Q169.19-27.3 171.71-25.75 174.24-24.2 175.61-21.38 176.99-18.55 176.99-14.6L176.99-14.6 176.99-12.55 157.54-12.55Q157.64-9.05 158.86-7 160.09-4.95 162.21-4.08 164.34-3.2 167.14-3.2L167.14-3.2Q169.34-3.2 171.49-3.8 173.64-4.4 175.79-5.4L175.79-5.4 175.79-1.4Q173.49-0.4 171.19 0.05 168.89 0.5 166.84 0.5ZM157.64-16.15L172.49-16.15Q172.39-18.5 171.59-20.18 170.79-21.85 169.31-22.75 167.84-23.65 165.69-23.65L165.69-23.65Q162.34-23.65 160.26-21.63 158.19-19.6 157.64-16.15L157.64-16.15ZM188.49 0L183.99 0 183.99-26.8 187.59-26.8 188.24-22.85 188.49-22.85Q189.29-24.4 190.56-25.38 191.84-26.35 193.54-26.83 195.24-27.3 197.24-27.3L197.24-27.3Q201.29-27.3 203.76-25.03 206.24-22.75 206.24-17.9L206.24-17.9 206.24 0 201.74 0 201.74-17.1Q201.74-20.5 200.36-22.08 198.99-23.65 195.94-23.65L195.94-23.65Q191.84-23.65 190.16-21.05 188.49-18.45 188.49-13.75L188.49-13.75 188.49 0ZM223.68 0.5L223.68 0.5Q221.23 0.5 219.21-0.35 217.18-1.2 215.73-2.95 214.28-4.7 213.51-7.35 212.73-10 212.73-13.55L212.73-13.55Q212.73-18 214.01-21.08 215.28-24.15 217.83-25.73 220.38-27.3 224.18-27.3L224.18-27.3Q226.03-27.3 227.46-26.8 228.88-26.3 229.91-25.43 230.93-24.55 231.53-23.4L231.53-23.4 231.83-23.4Q231.78-23.9 231.71-24.58 231.63-25.25 231.58-25.98 231.53-26.7 231.53-27.35L231.53-27.35 231.53-38 235.98-38 235.98 0 232.28 0 231.78-3.6 231.58-3.6Q230.83-2.4 229.76-1.48 228.68-0.55 227.21-0.03 225.73 0.5 223.68 0.5ZM224.53-3.15L224.53-3.15Q228.08-3.15 229.81-5.63 231.53-8.1 231.53-12.35L231.53-12.35 231.53-13.35Q231.53-16.3 230.88-18.63 230.23-20.95 228.73-22.3 227.23-23.65 224.68-23.65L224.68-23.65Q221.18-23.65 219.26-21.05 217.33-18.45 217.33-13.1L217.33-13.1Q217.33-8.15 219.11-5.65 220.88-3.15 224.53-3.15ZM256.83 0.5L256.83 0.5Q252.53 0.5 249.43-1.1 246.33-2.7 244.66-5.78 242.98-8.85 242.98-13.3L242.98-13.3Q242.98-17.7 244.58-20.83 246.18-23.95 249.03-25.63 251.88-27.3 255.68-27.3L255.68-27.3Q259.18-27.3 261.71-25.75 264.23-24.2 265.61-21.38 266.98-18.55 266.98-14.6L266.98-14.6 266.98-12.55 247.53-12.55Q247.63-9.05 248.86-7 250.08-4.95 252.21-4.08 254.33-3.2 257.13-3.2L257.13-3.2Q259.33-3.2 261.48-3.8 263.63-4.4 265.78-5.4L265.78-5.4 265.78-1.4Q263.48-0.4 261.18 0.05 258.88 0.5 256.83 0.5ZM247.63-16.15L262.48-16.15Q262.38-18.5 261.58-20.18 260.78-21.85 259.31-22.75 257.83-23.65 255.68-23.65L255.68-23.65Q252.33-23.65 250.26-21.63 248.18-19.6 247.63-16.15L247.63-16.15ZM295.48 0L274.48 0 274.48-3.05 290.23-23.35 275.28-23.35 275.28-26.8 295.08-26.8 295.08-23.25 279.83-3.8 295.48-3.8 295.48 0ZM315.03-20.5L315.03-20.5Q313.73-20.5 312.83-21.3 311.93-22.1 311.93-23.9L311.93-23.9Q311.93-25.8 312.83-26.55 313.73-27.3 315.03-27.3L315.03-27.3Q316.33-27.3 317.2-26.55 318.08-25.8 318.08-23.9L318.08-23.9Q318.08-22.1 317.2-21.3 316.33-20.5 315.03-20.5ZM314.98 0.5L314.98 0.5Q313.68 0.5 312.78-0.3 311.88-1.1 311.88-2.9L311.88-2.9Q311.88-4.8 312.78-5.55 313.68-6.3 314.98-6.3L314.98-6.3Q316.28-6.3 317.15-5.55 318.03-4.8 318.03-2.9L318.03-2.9Q318.03-1.1 317.15-0.3 316.28 0.5 314.98 0.5ZM373.92 0.5L373.92 0.5Q371.42 0.5 369.15 0.05 366.87-0.4 365.22-1.2L365.22-1.2 365.22-5.35Q366.97-4.55 369.1-3.88 371.22-3.2 374.17-3.2L374.17-3.2Q377.47-3.2 378.85-4.23 380.22-5.25 380.22-7.2L380.22-7.2Q380.22-8.25 379.75-8.93 379.27-9.6 377.92-10.3 376.57-11 373.97-12.1L373.97-12.1Q371.37-13.25 369.52-14.25 367.67-15.25 366.67-16.63 365.67-18 365.67-20.15L365.67-20.15Q365.67-22.55 366.9-24.13 368.12-25.7 370.45-26.5 372.77-27.3 375.97-27.3L375.97-27.3Q378.17-27.3 380.17-26.9 382.17-26.5 384.32-25.6L384.32-25.6 382.97-22.1Q380.97-22.95 379.3-23.25 377.62-23.55 375.97-23.55L375.97-23.55Q372.87-23.55 371.45-22.75 370.02-21.95 370.02-20.25L370.02-20.25Q370.02-19.15 370.65-18.4 371.27-17.65 372.7-16.95 374.12-16.25 376.47-15.25L376.47-15.25Q379.12-14.15 380.97-13.2 382.82-12.25 383.77-10.93 384.72-9.6 384.72-7.3L384.72-7.3Q384.72-4.75 383.5-3.03 382.27-1.3 379.87-0.4 377.47 0.5 373.92 0.5ZM406.82 0.5L406.82 0.5Q402.52 0.5 399.42-1.1 396.32-2.7 394.64-5.78 392.97-8.85 392.97-13.3L392.97-13.3Q392.97-17.7 394.57-20.83 396.17-23.95 399.02-25.63 401.87-27.3 405.67-27.3L405.67-27.3Q409.17-27.3 411.69-25.75 414.22-24.2 415.59-21.38 416.97-18.55 416.97-14.6L416.97-14.6 416.97-12.55 397.52-12.55Q397.62-9.05 398.84-7 400.07-4.95 402.19-4.08 404.32-3.2 407.12-3.2L407.12-3.2Q409.32-3.2 411.47-3.8 413.62-4.4 415.77-5.4L415.77-5.4 415.77-1.4Q413.47-0.4 411.17 0.05 408.87 0.5 406.82 0.5ZM397.62-16.15L412.47-16.15Q412.37-18.5 411.57-20.18 410.77-21.85 409.29-22.75 407.82-23.65 405.67-23.65L405.67-23.65Q402.32-23.65 400.24-21.63 398.17-19.6 397.62-16.15L397.62-16.15ZM428.47 0L423.97 0 423.97-26.8 427.57-26.8 428.22-22.85 428.47-22.85Q429.27-24.4 430.54-25.38 431.82-26.35 433.52-26.83 435.22-27.3 437.22-27.3L437.22-27.3Q441.27-27.3 443.74-25.03 446.22-22.75 446.22-17.9L446.22-17.9 446.22 0 441.72 0 441.72-17.1Q441.72-20.5 440.34-22.08 438.97-23.65 435.92-23.65L435.92-23.65Q431.82-23.65 430.14-21.05 428.47-18.45 428.47-13.75L428.47-13.75 428.47 0ZM476.96 0L453.96 0 453.96-3 463.51-3.75 463.51-23.05 454.76-23.7 454.76-26.8 468.01-26.8 468.01-3.75 476.96-3 476.96 0ZM465.31-31.65L465.31-31.65Q464.01-31.65 463.09-32.45 462.16-33.25 462.16-34.8L462.16-34.8Q462.16-36.45 463.09-37.23 464.01-38 465.31-38L465.31-38Q466.61-38 467.54-37.23 468.46-36.45 468.46-34.8L468.46-34.8Q468.46-33.25 467.54-32.45 466.61-31.65 465.31-31.65ZM495.01 0.5L495.01 0.5Q492.41 0.5 490.16-0.35 487.91-1.2 486.24-2.95 484.56-4.7 483.64-7.33 482.71-9.95 482.71-13.5L482.71-13.5Q482.71-18.15 484.29-21.2 485.86-24.25 488.61-25.78 491.36-27.3 494.86-27.3L494.86-27.3Q498.36-27.3 501.16-25.78 503.96-24.25 505.59-21.18 507.21-18.1 507.21-13.35L507.21-13.35Q507.21-9.85 506.29-7.25 505.36-4.65 503.74-2.93 502.11-1.2 499.89-0.35 497.66 0.5 495.01 0.5ZM494.96-3.15L494.96-3.15Q497.56-3.15 499.26-4.4 500.96-5.65 501.81-7.98 502.66-10.3 502.66-13.45L502.66-13.45Q502.66-16.65 501.81-18.93 500.96-21.2 499.24-22.43 497.51-23.65 494.91-23.65L494.91-23.65Q491.01-23.65 489.09-20.93 487.16-18.2 487.16-13.45L487.16-13.45Q487.16-10.3 488.04-7.98 488.91-5.65 490.64-4.4 492.36-3.15 494.96-3.15ZM533.56 0L513.06 0 513.06-3 521.21-3.75 521.21-23.05 513.86-23.7 513.86-26.8 524.81-26.8 525.41-21.9 525.61-21.9Q527.01-24.55 528.68-25.93 530.36-27.3 533.11-27.3L533.11-27.3Q534.81-27.3 536.13-27 537.46-26.7 538.56-26.2L538.56-26.2 537.36-22.25Q536.56-22.7 535.46-23.03 534.36-23.35 533.11-23.35L533.11-23.35Q530.96-23.35 529.31-22 527.66-20.65 526.71-18.4 525.76-16.15 525.76-13.45L525.76-13.45 525.76-3.75 533.56-3 533.56 0ZM586.85 0.5L586.85 0.5Q582.95 0.5 580.1-0.93 577.25-2.35 575.73-5.38 574.2-8.4 574.2-13.2L574.2-13.2Q574.2-18.35 575.88-21.45 577.55-24.55 580.53-25.93 583.5-27.3 587.3-27.3L587.3-27.3Q589.65-27.3 591.58-26.83 593.5-26.35 595.2-25.45L595.2-25.45 593.85-21.8Q592.25-22.65 590.75-23.03 589.25-23.4 587.5-23.4L587.5-23.4Q584.45-23.4 582.53-22.28 580.6-21.15 579.7-18.93 578.8-16.7 578.8-13.3L578.8-13.3Q578.8-9.75 579.75-7.55 580.7-5.35 582.63-4.35 584.55-3.35 587.35-3.35L587.35-3.35Q589.55-3.35 591.5-3.83 593.45-4.3 594.9-4.95L594.9-4.95 594.9-1Q593.4-0.3 591.2 0.1 589 0.5 586.85 0.5ZM626.95 0L603.95 0 603.95-3 613.75-3.75 613.75-34.25 604.25-34.9 604.25-38 618.25-38 618.25-3.75 626.95-3 626.95 0ZM645 0.5L645 0.5Q642.4 0.5 640.15-0.35 637.9-1.2 636.22-2.95 634.55-4.7 633.62-7.33 632.7-9.95 632.7-13.5L632.7-13.5Q632.7-18.15 634.27-21.2 635.85-24.25 638.6-25.78 641.35-27.3 644.85-27.3L644.85-27.3Q648.35-27.3 651.15-25.78 653.95-24.25 655.57-21.18 657.2-18.1 657.2-13.35L657.2-13.35Q657.2-9.85 656.27-7.25 655.35-4.65 653.72-2.93 652.1-1.2 649.87-0.35 647.65 0.5 645 0.5ZM644.95-3.15L644.95-3.15Q647.55-3.15 649.25-4.4 650.95-5.65 651.8-7.98 652.65-10.3 652.65-13.45L652.65-13.45Q652.65-16.65 651.8-18.93 650.95-21.2 649.22-22.43 647.5-23.65 644.9-23.65L644.9-23.65Q641-23.65 639.07-20.93 637.15-18.2 637.15-13.45L637.15-13.45Q637.15-10.3 638.02-7.98 638.9-5.65 640.62-4.4 642.35-3.15 644.95-3.15ZM672.99 0.5L672.99 0.5Q668.24 0.5 665.97-1.88 663.69-4.25 663.69-8.95L663.69-8.95 663.69-26.8 668.19-26.8 668.19-9.65Q668.19-6.45 669.52-4.8 670.84-3.15 674.09-3.15L674.09-3.15Q676.89-3.15 678.49-4.33 680.09-5.5 680.77-7.7 681.44-9.9 681.44-13L681.44-13 681.44-26.8 685.94-26.8 685.94 0 682.34 0 681.69-3.6 681.44-3.6Q680.49-2.1 679.24-1.2 677.99-0.3 676.44 0.1 674.89 0.5 672.99 0.5ZM703.64 0.5L703.64 0.5Q701.19 0.5 699.17-0.35 697.14-1.2 695.69-2.95 694.24-4.7 693.47-7.35 692.69-10 692.69-13.55L692.69-13.55Q692.69-18 693.97-21.08 695.24-24.15 697.79-25.73 700.34-27.3 704.14-27.3L704.14-27.3Q705.99-27.3 707.42-26.8 708.84-26.3 709.87-25.43 710.89-24.55 711.49-23.4L711.49-23.4 711.79-23.4Q711.74-23.9 711.67-24.58 711.59-25.25 711.54-25.98 711.49-26.7 711.49-27.35L711.49-27.35 711.49-38 715.94-38 715.94 0 712.24 0 711.74-3.6 711.54-3.6Q710.79-2.4 709.72-1.48 708.64-0.55 707.17-0.03 705.69 0.5 703.64 0.5ZM704.49-3.15L704.49-3.15Q708.04-3.15 709.77-5.63 711.49-8.1 711.49-12.35L711.49-12.35 711.49-13.35Q711.49-16.3 710.84-18.63 710.19-20.95 708.69-22.3 707.19-23.65 704.64-23.65L704.64-23.65Q701.14-23.65 699.22-21.05 697.29-18.45 697.29-13.1L697.29-13.1Q697.29-8.15 699.07-5.65 700.84-3.15 704.49-3.15ZM766.79 0.5L766.79 0.5Q762.49 0.5 759.39-1.1 756.29-2.7 754.61-5.78 752.94-8.85 752.94-13.3L752.94-13.3Q752.94-17.7 754.54-20.83 756.14-23.95 758.99-25.63 761.84-27.3 765.64-27.3L765.64-27.3Q769.14-27.3 771.66-25.75 774.19-24.2 775.56-21.38 776.94-18.55 776.94-14.6L776.94-14.6 776.94-12.55 757.49-12.55Q757.59-9.05 758.81-7 760.04-4.95 762.16-4.08 764.29-3.2 767.09-3.2L767.09-3.2Q769.29-3.2 771.44-3.8 773.59-4.4 775.74-5.4L775.74-5.4 775.74-1.4Q773.44-0.4 771.14 0.05 768.84 0.5 766.79 0.5ZM757.59-16.15L772.44-16.15Q772.34-18.5 771.54-20.18 770.74-21.85 769.26-22.75 767.79-23.65 765.64-23.65L765.64-23.65Q762.29-23.65 760.21-21.63 758.14-19.6 757.59-16.15L757.59-16.15ZM788.43 0L783.93 0 783.93-26.8 787.53-26.8 788.18-22.85 788.43-22.85Q789.23-24.4 790.51-25.38 791.78-26.35 793.48-26.83 795.18-27.3 797.18-27.3L797.18-27.3Q801.23-27.3 803.71-25.03 806.18-22.75 806.18-17.9L806.18-17.9 806.18 0 801.68 0 801.68-17.1Q801.68-20.5 800.31-22.08 798.93-23.65 795.88-23.65L795.88-23.65Q791.78-23.65 790.11-21.05 788.43-18.45 788.43-13.75L788.43-13.75 788.43 0ZM823.73 12.25L823.73 12.25Q820.98 12.25 818.56 11.73 816.13 11.2 814.08 10.35L814.08 10.35 814.08 6.35Q816.08 7.5 818.71 8.08 821.33 8.65 823.58 8.65L823.58 8.65Q828.13 8.65 829.93 6.53 831.73 4.4 831.73 0.7L831.73 0.7 831.73-0.25Q831.73-0.85 831.76-1.4 831.78-1.95 831.88-3.1L831.88-3.1 831.68-3.1Q830.28-1.05 828.41-0.28 826.53 0.5 823.88 0.5L823.88 0.5Q818.58 0.5 815.63-3.13 812.68-6.75 812.68-13.25L812.68-13.25Q812.68-19.8 815.61-23.55 818.53-27.3 823.63-27.3L823.63-27.3Q826.33-27.3 828.18-26.43 830.03-25.55 831.48-23.5L831.48-23.5 831.73-23.5 832.33-26.8 835.93-26.8 835.93 0.7Q835.93 4.5 834.63 7.08 833.33 9.65 830.63 10.95 827.93 12.25 823.73 12.25ZM824.73-3.15L824.73-3.15Q826.38-3.15 827.71-3.68 829.03-4.2 829.96-5.33 830.88-6.45 831.38-8.18 831.88-9.9 831.88-12.3L831.88-12.3 831.88-13.35Q831.88-17 831.01-19.28 830.13-21.55 828.48-22.6 826.83-23.65 824.58-23.65L824.58-23.65Q820.78-23.65 819.03-20.98 817.28-18.3 817.28-13.4L817.28-13.4Q817.28-8.4 819.11-5.78 820.93-3.15 824.73-3.15ZM866.93 0L843.93 0 843.93-3 853.48-3.75 853.48-23.05 844.73-23.7 844.73-26.8 857.98-26.8 857.98-3.75 866.93-3 866.93 0ZM855.28-31.65L855.28-31.65Q853.98-31.65 853.05-32.45 852.13-33.25 852.13-34.8L852.13-34.8Q852.13-36.45 853.05-37.23 853.98-38 855.28-38L855.28-38Q856.58-38 857.5-37.23 858.43-36.45 858.43-34.8L858.43-34.8Q858.43-33.25 857.5-32.45 856.58-31.65 855.28-31.65ZM878.43 0L873.93 0 873.93-26.8 877.53-26.8 878.18-22.85 878.43-22.85Q879.23-24.4 880.5-25.38 881.78-26.35 883.48-26.83 885.18-27.3 887.18-27.3L887.18-27.3Q891.23-27.3 893.7-25.03 896.18-22.75 896.18-17.9L896.18-17.9 896.18 0 891.68 0 891.68-17.1Q891.68-20.5 890.3-22.08 888.93-23.65 885.88-23.65L885.88-23.65Q881.78-23.65 880.1-21.05 878.43-18.45 878.43-13.75L878.43-13.75 878.43 0ZM916.77 0.5L916.77 0.5Q912.47 0.5 909.37-1.1 906.27-2.7 904.6-5.78 902.92-8.85 902.92-13.3L902.92-13.3Q902.92-17.7 904.52-20.83 906.12-23.95 908.97-25.63 911.82-27.3 915.62-27.3L915.62-27.3Q919.12-27.3 921.65-25.75 924.17-24.2 925.55-21.38 926.92-18.55 926.92-14.6L926.92-14.6 926.92-12.55 907.47-12.55Q907.57-9.05 908.8-7 910.02-4.95 912.15-4.08 914.27-3.2 917.07-3.2L917.07-3.2Q919.27-3.2 921.42-3.8 923.57-4.4 925.72-5.4L925.72-5.4 925.72-1.4Q923.42-0.4 921.12 0.05 918.82 0.5 916.77 0.5ZM907.57-16.15L922.42-16.15Q922.32-18.5 921.52-20.18 920.72-21.85 919.25-22.75 917.77-23.65 915.62-23.65L915.62-23.65Q912.27-23.65 910.2-21.63 908.12-19.6 907.57-16.15L907.57-16.15ZM946.77 0.5L946.77 0.5Q942.47 0.5 939.37-1.1 936.27-2.7 934.6-5.78 932.92-8.85 932.92-13.3L932.92-13.3Q932.92-17.7 934.52-20.83 936.12-23.95 938.97-25.63 941.82-27.3 945.62-27.3L945.62-27.3Q949.12-27.3 951.65-25.75 954.17-24.2 955.55-21.38 956.92-18.55 956.92-14.6L956.92-14.6 956.92-12.55 937.47-12.55Q937.57-9.05 938.8-7 940.02-4.95 942.15-4.08 944.27-3.2 947.07-3.2L947.07-3.2Q949.27-3.2 951.42-3.8 953.57-4.4 955.72-5.4L955.72-5.4 955.72-1.4Q953.42-0.4 951.12 0.05 948.82 0.5 946.77 0.5ZM937.57-16.15L952.42-16.15Q952.32-18.5 951.52-20.18 950.72-21.85 949.25-22.75 947.77-23.65 945.62-23.65L945.62-23.65Q942.27-23.65 940.2-21.63 938.12-19.6 937.57-16.15L937.57-16.15ZM983.52 0L963.02 0 963.02-3 971.17-3.75 971.17-23.05 963.82-23.7 963.82-26.8 974.77-26.8 975.37-21.9 975.57-21.9Q976.97-24.55 978.64-25.93 980.32-27.3 983.07-27.3L983.07-27.3Q984.77-27.3 986.09-27 987.42-26.7 988.52-26.2L988.52-26.2 987.32-22.25Q986.52-22.7 985.42-23.03 984.32-23.35 983.07-23.35L983.07-23.35Q980.92-23.35 979.27-22 977.62-20.65 976.67-18.4 975.72-16.15 975.72-13.45L975.72-13.45 975.72-3.75 983.52-3 983.52 0Z" opacity="1" transform="matrix(1,0,0,1,0,0)" fill="#141414" class="wordmark-text-0" data-fill-palette-color="primary" id="text-0"></path></svg></g></svg></g></svg></g></svg></g><g><svg viewBox="0 0 34.68050745594645 29.95030969977836" height="29.95030969977836" width="34.68050745594645"><g><svg xmlns="http://www.w3.org/2000/svg" version="1.1" viewBox="2.249 6.499959199706685 27.501 23.750040800293316" x="0" y="0" height="29.95030969977836" width="34.68050745594645" class="icon-icon-0" data-fill-palette-color="accent" id="icon-0"><path d="M6.702 21.25H25.295A4.46 4.46 0 0 0 29.75 16.797C29.75 14.595 28.12 12.746 26.002 12.404A6 6 0 0 0 20.654 9.168C20.128 9.168 19.609 9.235 19.107 9.368A7.31 7.31 0 0 0 13.277 6.5C9.764 6.5 6.752 9.023 6.058 12.391A4.46 4.46 0 0 0 2.249 16.797 4.46 4.46 0 0 0 6.702 21.25M6.689 14.347H6.693L7.847 14.422 7.924 13.446C8.143 10.673 10.494 8.501 13.276 8.501 15.158 8.501 16.871 9.465 17.859 11.079L18.306 11.81 19.097 11.48A4 4 0 0 1 20.654 11.169C22.318 11.169 23.791 12.169 24.406 13.718L24.654 14.341 25.324 14.349A2.46 2.46 0 0 1 27.75 16.798 2.457 2.457 0 0 1 25.295 19.251H6.702A2.451 2.451 0 0 1 6.689 14.347M25.295 22.25H6.702A5.45 5.45 0 0 1 2.266 19.956C2.352 22.336 4.302 24.25 6.703 24.25H25.295C27.697 24.25 29.649 22.335 29.734 19.954A5.45 5.45 0 0 1 25.295 22.25M25.295 25.25H6.702A5.45 5.45 0 0 1 2.266 22.956C2.352 25.336 4.302 27.25 6.703 27.25H25.295C27.697 27.25 29.649 25.335 29.734 22.954A5.45 5.45 0 0 1 25.295 25.25M25.295 28.25H6.702A5.45 5.45 0 0 1 2.266 25.956C2.352 28.336 4.302 30.25 6.703 30.25H25.295C27.697 30.25 29.649 28.335 29.734 25.954A5.45 5.45 0 0 1 25.295 28.25" fill="#01cc65" data-fill-palette-color="accent"></path></svg></g></svg></g></svg></g><defs></defs></svg><rect width="395.5199999999999" height="26.833559096756915" fill="none" stroke="none" visibility="hidden"></rect></g></svg></g></svg>