<svg xmlns="http://www.w3.org/2000/svg" version="1.1" xmlns:xlink="http://www.w3.org/1999/xlink" xmlns:svgjs="http://svgjs.dev/svgjs" width="2000" height="131" viewBox="0 0 2000 131"><g transform="matrix(1,0,0,1,-1.2121212121212466,-2.1505637243058686)"><svg viewBox="0 0 396 26" data-background-color="#ffffff" preserveAspectRatio="xMidYMid meet" height="131" width="2000" xmlns="http://www.w3.org/2000/svg" xmlns:xlink="http://www.w3.org/1999/xlink"><g id="tight-bounds" transform="matrix(1,0,0,1,0.2400000000000091,0.4268294414652871)"><svg viewBox="0 0 395.52 25.146341117069404" height="25.146341117069404" width="395.52"><g><svg viewBox="0 0 425.1975884048582 27.033180623442153" height="25.146341117069404" width="395.52"><g transform="matrix(1,0,0,1,29.677588404858202,6.817647786632821)"><svg viewBox="0 0 395.52 13.39788505017651" height="13.39788505017651" width="395.52"><g id="textblocktransform"><svg viewBox="0 0 395.52 13.39788505017651" height="13.39788505017651" width="395.52" id="textblock"><g><svg viewBox="0 0 395.52 13.39788505017651" height="13.39788505017651" width="395.52"><g transform="matrix(1,0,0,1,0,0)"><svg width="395.52" viewBox="-1.2000000000000002 -39.35 1261.45 43.7" height="13.39788505017651" data-palette-color="#222222"><path d="M17.35-9.15L17.35-35 21.35-35 21.35-9.15Q21.35-6.4 20.15-4.25 18.95-2.1 16.82-0.88 14.7 0.35 11.85 0.35L11.85 0.35Q8.25 0.35 5.95-1.48 3.65-3.3 2.8-6.5L2.8-6.5 6.25-7.75Q6.6-6.45 7.28-5.4 7.95-4.35 9.08-3.75 10.2-3.15 11.85-3.15L11.85-3.15Q13.8-3.15 15-4.05 16.2-4.95 16.78-6.33 17.35-7.7 17.35-9.15L17.35-9.15ZM45 0.35L45 0.35Q41.3 0.35 38.12-0.95 34.95-2.25 32.57-4.63 30.2-7 28.87-10.28 27.55-13.55 27.55-17.5L27.55-17.5Q27.55-21.45 28.87-24.73 30.2-28 32.57-30.38 34.95-32.75 38.12-34.05 41.3-35.35 45-35.35L45-35.35Q48.65-35.35 51.82-34.05 55-32.75 57.35-30.38 59.7-28 61.02-24.73 62.35-21.45 62.35-17.5L62.35-17.5Q62.35-13.55 61.02-10.28 59.7-7 57.35-4.63 55-2.25 51.82-0.95 48.65 0.35 45 0.35ZM45-3.15L45-3.15Q48.75-3.15 51.75-4.9 54.75-6.65 56.5-9.88 58.25-13.1 58.25-17.5L58.25-17.5Q58.25-21.95 56.5-25.18 54.75-28.4 51.75-30.13 48.75-31.85 45-31.85L45-31.85Q41.2-31.85 38.17-30.13 35.15-28.4 33.4-25.18 31.65-21.95 31.65-17.5L31.65-17.5Q31.65-13.1 33.4-9.88 35.15-6.65 38.17-4.9 41.2-3.15 45-3.15ZM91.65-35L91.65-31.5 72.7-31.5 72.7-19.55 86.95-19.55 86.95-16.05 72.7-16.05 72.7-3.5 91.65-3.5 91.65 0 68.7 0 68.7-35 91.65-35ZM117.14-27.1L117.14 0 113.14 0 113.14-35 117.54-35 130.54-5.5 143.49-35 147.84-35 147.84 0 143.84 0 143.84-27.1 131.94 0 129.09 0 117.14-27.1ZM179.29-35L179.29-31.5 160.34-31.5 160.34-19.55 174.59-19.55 174.59-16.05 160.34-16.05 160.34-3.5 179.29-3.5 179.29 0 156.34 0 156.34-35 179.29-35ZM209.54-35L213.54-35 213.54 0 209.49 0 190.79-28.6 190.79 0 186.79 0 186.79-35 190.84-35 209.54-6.45 209.54-35ZM222.03-35L233.58-35Q239.38-35 243.51-32.88 247.63-30.75 249.86-26.8 252.08-22.85 252.08-17.4L252.08-17.4Q252.08-12 249.86-8.1 247.63-4.2 243.51-2.1 239.38 0 233.58 0L233.58 0 222.03 0 222.03-35ZM226.03-3.5L233.58-3.5Q240.73-3.5 244.38-7.15 248.03-10.8 248.03-17.4L248.03-17.4Q248.03-24.05 244.38-27.78 240.73-31.5 233.58-31.5L233.58-31.5 226.03-31.5 226.03-3.5ZM281.43-35L281.43-31.5 262.48-31.5 262.48-19.55 276.73-19.55 276.73-16.05 262.48-16.05 262.48-3.5 281.43-3.5 281.43 0 258.48 0 258.48-35 281.43-35ZM311.48-35L311.48-31.85 292.18-3.5 311.68-3.5 311.68 0 287.53 0 287.53-3.15 306.78-31.5 287.73-31.5 287.73-35 311.48-35ZM317.68-12.2L317.68-15.6 337.38-15.6 337.38-12.2 317.68-12.2ZM344.77 0L344.77-35 348.77-35 348.77-19.55 367.52-19.55 367.52-35 371.52-35 371.52 0 367.52 0 367.52-16.05 348.77-16.05 348.77 0 344.77 0ZM379.82-12.95L379.82-35 383.82-35 383.82-12.9Q383.82-9.45 385.07-7.3 386.32-5.15 388.45-4.15 390.57-3.15 393.27-3.15L393.27-3.15Q395.92-3.15 398.02-4.15 400.12-5.15 401.37-7.3 402.62-9.45 402.62-12.9L402.62-12.9 402.62-35 406.62-35 406.62-12.95Q406.62-9.5 405.55-7 404.47-4.5 402.57-2.88 400.67-1.25 398.27-0.45 395.87 0.35 393.22 0.35L393.22 0.35Q389.62 0.35 386.57-1.07 383.52-2.5 381.67-5.45 379.82-8.4 379.82-12.95L379.82-12.95ZM445.77-25.8L442.27-24.5Q440.37-28.25 437.22-30.03 434.07-31.8 430.22-31.8L430.22-31.8Q426.42-31.8 423.37-30.05 420.32-28.3 418.57-25.1 416.82-21.9 416.82-17.5L416.82-17.5Q416.82-13.15 418.57-9.95 420.32-6.75 423.37-5 426.42-3.25 430.22-3.25L430.22-3.25Q433.07-3.25 435.52-4.23 437.97-5.2 439.77-7.03 441.57-8.85 442.52-11.4L442.52-11.4 442.52-15.45 430.52-15.45 430.52-18.7 446.57-18.7 446.57-11.2Q445.42-7.85 443.07-5.25 440.72-2.65 437.42-1.15 434.12 0.35 430.22 0.35L430.22 0.35Q426.52 0.35 423.34-0.95 420.17-2.25 417.79-4.63 415.42-7 414.09-10.28 412.77-13.55 412.77-17.5L412.77-17.5Q412.77-21.45 414.09-24.73 415.42-28 417.79-30.38 420.17-32.75 423.34-34.05 426.52-35.35 430.22-35.35L430.22-35.35Q433.67-35.35 436.69-34.23 439.72-33.1 442.07-30.98 444.42-28.85 445.77-25.8L445.77-25.8ZM453.37 0L453.37-35 457.37-35 457.37-19.55 476.12-19.55 476.12-35 480.12-35 480.12 0 476.12 0 476.12-16.05 457.37-16.05 457.37 0 453.37 0ZM511.56-35L511.56-31.5 492.61-31.5 492.61-19.55 506.86-19.55 506.86-16.05 492.61-16.05 492.61-3.5 511.56-3.5 511.56 0 488.61 0 488.61-35 511.56-35ZM517.36-7.45L521.01-8.9Q521.31-7.55 522.29-6.23 523.26-4.9 524.99-4.03 526.71-3.15 529.41-3.15L529.41-3.15Q533.26-3.15 535.11-4.95 536.96-6.75 536.96-9.2L536.96-9.2Q536.96-11.15 535.91-12.4 534.86-13.65 533.06-14.48 531.26-15.3 529.01-15.95L529.01-15.95Q527.01-16.5 525.04-17.18 523.06-17.85 521.46-18.88 519.86-19.9 518.91-21.55 517.96-23.2 517.96-25.65L517.96-25.65Q517.96-28.6 519.36-30.78 520.76-32.95 523.31-34.15 525.86-35.35 529.26-35.35L529.26-35.35Q532.21-35.35 534.41-34.5 536.61-33.65 538.09-32.13 539.56-30.6 540.26-28.6L540.26-28.6 536.71-27.25Q536.36-28.4 535.36-29.48 534.36-30.55 532.76-31.25 531.16-31.95 529.11-31.95L529.11-31.95Q527.11-31.95 525.49-31.25 523.86-30.55 522.91-29.25 521.96-27.95 521.96-26.1L521.96-26.1Q521.96-24.1 523.09-22.93 524.21-21.75 526.09-21.03 527.96-20.3 530.21-19.65L530.21-19.65Q532.26-19 534.19-18.25 536.11-17.5 537.64-16.4 539.16-15.3 540.06-13.65 540.96-12 540.96-9.6L540.96-9.6Q540.96-6.95 539.71-4.67 538.46-2.4 535.94-1.03 533.41 0.35 529.46 0.35L529.46 0.35Q526.16 0.35 523.66-0.68 521.16-1.7 519.56-3.45 517.96-5.2 517.36-7.45L517.36-7.45ZM549.61 0.25L549.61 0.25Q548.46 0.25 547.68-0.55 546.91-1.35 546.91-2.5L546.91-2.5Q546.91-3.65 547.68-4.45 548.46-5.25 549.61-5.25L549.61-5.25Q550.71-5.25 551.51-4.45 552.31-3.65 552.31-2.5L552.31-2.5Q552.31-1.35 551.51-0.55 550.71 0.25 549.61 0.25ZM549.61-21.35L549.61-21.35Q548.46-21.35 547.68-22.15 546.91-22.95 546.91-24.1L546.91-24.1Q546.91-25.25 547.68-26.05 548.46-26.85 549.61-26.85L549.61-26.85Q550.71-26.85 551.51-26.05 552.31-25.25 552.31-24.1L552.31-24.1Q552.31-22.95 551.51-22.15 550.71-21.35 549.61-21.35ZM572.25-7.45L575.9-8.9Q576.2-7.55 577.18-6.23 578.15-4.9 579.88-4.03 581.6-3.15 584.3-3.15L584.3-3.15Q588.15-3.15 590-4.95 591.85-6.75 591.85-9.2L591.85-9.2Q591.85-11.15 590.8-12.4 589.75-13.65 587.95-14.48 586.15-15.3 583.9-15.95L583.9-15.95Q581.9-16.5 579.93-17.18 577.95-17.85 576.35-18.88 574.75-19.9 573.8-21.55 572.85-23.2 572.85-25.65L572.85-25.65Q572.85-28.6 574.25-30.78 575.65-32.95 578.2-34.15 580.75-35.35 584.15-35.35L584.15-35.35Q587.1-35.35 589.3-34.5 591.5-33.65 592.98-32.13 594.45-30.6 595.15-28.6L595.15-28.6 591.6-27.25Q591.25-28.4 590.25-29.48 589.25-30.55 587.65-31.25 586.05-31.95 584-31.95L584-31.95Q582-31.95 580.38-31.25 578.75-30.55 577.8-29.25 576.85-27.95 576.85-26.1L576.85-26.1Q576.85-24.1 577.98-22.93 579.1-21.75 580.98-21.03 582.85-20.3 585.1-19.65L585.1-19.65Q587.15-19 589.08-18.25 591-17.5 592.53-16.4 594.05-15.3 594.95-13.65 595.85-12 595.85-9.6L595.85-9.6Q595.85-6.95 594.6-4.67 593.35-2.4 590.83-1.03 588.3 0.35 584.35 0.35L584.35 0.35Q581.05 0.35 578.55-0.68 576.05-1.7 574.45-3.45 572.85-5.2 572.25-7.45L572.25-7.45ZM625.6-35L625.6-31.5 606.65-31.5 606.65-19.55 620.9-19.55 620.9-16.05 606.65-16.05 606.65-3.5 625.6-3.5 625.6 0 602.65 0 602.65-35 625.6-35ZM655.85-35L659.85-35 659.85 0 655.8 0 637.1-28.6 637.1 0 633.1 0 633.1-35 637.15-35 655.85-6.45 655.85-35ZM668.34 0L668.34-35 672.34-35 672.34 0 668.34 0ZM696.19 0.35L696.19 0.35Q692.49 0.35 689.32-0.95 686.14-2.25 683.77-4.63 681.39-7 680.07-10.28 678.74-13.55 678.74-17.5L678.74-17.5Q678.74-21.45 680.07-24.73 681.39-28 683.77-30.38 686.14-32.75 689.32-34.05 692.49-35.35 696.19-35.35L696.19-35.35Q699.84-35.35 703.02-34.05 706.19-32.75 708.54-30.38 710.89-28 712.22-24.73 713.54-21.45 713.54-17.5L713.54-17.5Q713.54-13.55 712.22-10.28 710.89-7 708.54-4.63 706.19-2.25 703.02-0.95 699.84 0.35 696.19 0.35ZM696.19-3.15L696.19-3.15Q699.94-3.15 702.94-4.9 705.94-6.65 707.69-9.88 709.44-13.1 709.44-17.5L709.44-17.5Q709.44-21.95 707.69-25.18 705.94-28.4 702.94-30.13 699.94-31.85 696.19-31.85L696.19-31.85Q692.39-31.85 689.37-30.13 686.34-28.4 684.59-25.18 682.84-21.95 682.84-17.5L682.84-17.5Q682.84-13.1 684.59-9.88 686.34-6.65 689.37-4.9 692.39-3.15 696.19-3.15ZM740.09-24.65L740.09-24.65Q740.09-27.8 738.24-29.65 736.39-31.5 732.19-31.5L732.19-31.5 723.89-31.5 723.89-17.8 732.24-17.8Q734.99-17.8 736.71-18.65 738.44-19.5 739.26-21.05 740.09-22.6 740.09-24.65ZM719.89-35L732.19-35Q736.29-35 738.91-33.6 741.54-32.2 742.84-29.88 744.14-27.55 744.14-24.65L744.14-24.65Q744.14-22.6 743.46-20.75 742.79-18.9 741.34-17.45 739.89-16 737.64-15.15 735.39-14.3 732.24-14.3L732.24-14.3 723.89-14.3 723.89 0 719.89 0 719.89-35ZM730.79-15.8L735.09-15.8 744.79 0 740.24 0 730.79-15.8ZM769.13-17.8L777.48-17.8Q780.28-17.8 782.03-18.65 783.78-19.5 784.61-21.05 785.43-22.6 785.43-24.65L785.43-24.65Q785.43-27.9 783.56-29.7 781.68-31.5 777.48-31.5L777.48-31.5 769.13-31.5 769.13-17.8ZM789.38-24.65L789.38-24.65Q789.38-22.6 788.71-20.73 788.03-18.85 786.58-17.4 785.13-15.95 782.88-15.13 780.63-14.3 777.48-14.3L777.48-14.3 769.13-14.3 769.13 0 765.13 0 765.13-35 777.48-35Q781.58-35 784.21-33.6 786.83-32.2 788.11-29.85 789.38-27.5 789.38-24.65ZM815.93-24.65L815.93-24.65Q815.93-27.8 814.08-29.65 812.23-31.5 808.03-31.5L808.03-31.5 799.73-31.5 799.73-17.8 808.08-17.8Q810.83-17.8 812.56-18.65 814.28-19.5 815.11-21.05 815.93-22.6 815.93-24.65ZM795.73-35L808.03-35Q812.13-35 814.76-33.6 817.38-32.2 818.68-29.88 819.98-27.55 819.98-24.65L819.98-24.65Q819.98-22.6 819.31-20.75 818.63-18.9 817.18-17.45 815.73-16 813.48-15.15 811.23-14.3 808.08-14.3L808.08-14.3 799.73-14.3 799.73 0 795.73 0 795.73-35ZM806.63-15.8L810.93-15.8 820.63 0 816.08 0 806.63-15.8ZM842.33 0.35L842.33 0.35Q838.63 0.35 835.45-0.95 832.28-2.25 829.9-4.63 827.53-7 826.2-10.28 824.88-13.55 824.88-17.5L824.88-17.5Q824.88-21.45 826.2-24.73 827.53-28 829.9-30.38 832.28-32.75 835.45-34.05 838.63-35.35 842.33-35.35L842.33-35.35Q845.98-35.35 849.15-34.05 852.33-32.75 854.68-30.38 857.03-28 858.35-24.73 859.68-21.45 859.68-17.5L859.68-17.5Q859.68-13.55 858.35-10.28 857.03-7 854.68-4.63 852.33-2.25 849.15-0.95 845.98 0.35 842.33 0.35ZM842.33-3.15L842.33-3.15Q846.08-3.15 849.08-4.9 852.08-6.65 853.83-9.88 855.58-13.1 855.58-17.5L855.58-17.5Q855.58-21.95 853.83-25.18 852.08-28.4 849.08-30.13 846.08-31.85 842.33-31.85L842.33-31.85Q838.53-31.85 835.5-30.13 832.48-28.4 830.73-25.18 828.98-21.95 828.98-17.5L828.98-17.5Q828.98-13.1 830.73-9.88 832.48-6.65 835.5-4.9 838.53-3.15 842.33-3.15ZM866.03-35L877.58-35Q883.38-35 887.5-32.88 891.63-30.75 893.85-26.8 896.08-22.85 896.08-17.4L896.08-17.4Q896.08-12 893.85-8.1 891.63-4.2 887.5-2.1 883.38 0 877.58 0L877.58 0 866.03 0 866.03-35ZM870.03-3.5L877.58-3.5Q884.73-3.5 888.38-7.15 892.03-10.8 892.03-17.4L892.03-17.4Q892.03-24.05 888.38-27.78 884.73-31.5 877.58-31.5L877.58-31.5 870.03-31.5 870.03-3.5ZM902.27-12.95L902.27-35 906.27-35 906.27-12.9Q906.27-9.45 907.52-7.3 908.77-5.15 910.9-4.15 913.02-3.15 915.72-3.15L915.72-3.15Q918.37-3.15 920.47-4.15 922.57-5.15 923.82-7.3 925.07-9.45 925.07-12.9L925.07-12.9 925.07-35 929.07-35 929.07-12.95Q929.07-9.5 928-7 926.92-4.5 925.02-2.88 923.12-1.25 920.72-0.45 918.32 0.35 915.67 0.35L915.67 0.35Q912.07 0.35 909.02-1.07 905.97-2.5 904.12-5.45 902.27-8.4 902.27-12.95L902.27-12.95ZM935.22-17.5L935.22-17.5Q935.22-21.45 936.52-24.73 937.82-28 940.2-30.38 942.57-32.75 945.7-34.05 948.82-35.35 952.52-35.35L952.52-35.35Q957.92-35.35 962-32.85 966.07-30.35 968.17-25.75L968.17-25.75 964.92-24.55Q963.77-27 961.87-28.58 959.97-30.15 957.57-30.95 955.17-31.75 952.52-31.75L952.52-31.75Q948.77-31.75 945.77-30.05 942.77-28.35 941.05-25.15 939.32-21.95 939.32-17.5L939.32-17.5Q939.32-13.1 941.05-9.9 942.77-6.7 945.77-4.98 948.77-3.25 952.52-3.25L952.52-3.25Q955.22-3.25 957.67-4.1 960.12-4.95 962.1-6.75 964.07-8.55 965.27-11.25L965.27-11.25 968.52-10.05Q966.37-4.9 962.22-2.27 958.07 0.35 952.52 0.35L952.52 0.35Q948.82 0.35 945.7-0.95 942.57-2.25 940.2-4.65 937.82-7.05 936.52-10.33 935.22-13.6 935.22-17.5ZM972.47-31.5L972.47-35 998.72-35 998.72-31.5 987.62-31.5 987.62 0 983.62 0 983.62-31.5 972.47-31.5ZM1019.06-35L1030.61-35Q1036.41-35 1040.54-32.88 1044.66-30.75 1046.89-26.8 1049.11-22.85 1049.11-17.4L1049.11-17.4Q1049.11-12 1046.89-8.1 1044.66-4.2 1040.54-2.1 1036.41 0 1030.61 0L1030.61 0 1019.06 0 1019.06-35ZM1023.06-3.5L1030.61-3.5Q1037.76-3.5 1041.41-7.15 1045.06-10.8 1045.06-17.4L1045.06-17.4Q1045.06-24.05 1041.41-27.78 1037.76-31.5 1030.61-31.5L1030.61-31.5 1023.06-31.5 1023.06-3.5ZM1078.46-35L1078.46-31.5 1059.51-31.5 1059.51-19.55 1073.76-19.55 1073.76-16.05 1059.51-16.05 1059.51-3.5 1078.46-3.5 1078.46 0 1055.51 0 1055.51-35 1078.46-35ZM1084.26-7.45L1087.91-8.9Q1088.21-7.55 1089.18-6.23 1090.16-4.9 1091.88-4.03 1093.61-3.15 1096.31-3.15L1096.31-3.15Q1100.16-3.15 1102.01-4.95 1103.86-6.75 1103.86-9.2L1103.86-9.2Q1103.86-11.15 1102.81-12.4 1101.76-13.65 1099.96-14.48 1098.16-15.3 1095.91-15.95L1095.91-15.95Q1093.91-16.5 1091.93-17.18 1089.96-17.85 1088.36-18.88 1086.76-19.9 1085.81-21.55 1084.86-23.2 1084.86-25.65L1084.86-25.65Q1084.86-28.6 1086.26-30.78 1087.66-32.95 1090.21-34.15 1092.76-35.35 1096.16-35.35L1096.16-35.35Q1099.11-35.35 1101.31-34.5 1103.51-33.65 1104.98-32.13 1106.46-30.6 1107.16-28.6L1107.16-28.6 1103.61-27.25Q1103.26-28.4 1102.26-29.48 1101.26-30.55 1099.66-31.25 1098.06-31.95 1096.01-31.95L1096.01-31.95Q1094.01-31.95 1092.38-31.25 1090.76-30.55 1089.81-29.25 1088.86-27.95 1088.86-26.1L1088.86-26.1Q1088.86-24.1 1089.98-22.93 1091.11-21.75 1092.98-21.03 1094.86-20.3 1097.11-19.65L1097.11-19.65Q1099.16-19 1101.08-18.25 1103.01-17.5 1104.53-16.4 1106.06-15.3 1106.96-13.65 1107.86-12 1107.86-9.6L1107.86-9.6Q1107.86-6.95 1106.61-4.67 1105.36-2.4 1102.83-1.03 1100.31 0.35 1096.36 0.35L1096.36 0.35Q1093.06 0.35 1090.56-0.68 1088.06-1.7 1086.46-3.45 1084.86-5.2 1084.26-7.45L1084.26-7.45ZM1114.66 0L1114.66-35 1118.66-35 1118.66 0 1114.66 0ZM1158.05-25.8L1154.55-24.5Q1152.65-28.25 1149.5-30.03 1146.35-31.8 1142.5-31.8L1142.5-31.8Q1138.7-31.8 1135.65-30.05 1132.6-28.3 1130.85-25.1 1129.1-21.9 1129.1-17.5L1129.1-17.5Q1129.1-13.15 1130.85-9.95 1132.6-6.75 1135.65-5 1138.7-3.25 1142.5-3.25L1142.5-3.25Q1145.35-3.25 1147.8-4.23 1150.25-5.2 1152.05-7.03 1153.85-8.85 1154.8-11.4L1154.8-11.4 1154.8-15.45 1142.8-15.45 1142.8-18.7 1158.85-18.7 1158.85-11.2Q1157.7-7.85 1155.35-5.25 1153-2.65 1149.7-1.15 1146.4 0.35 1142.5 0.35L1142.5 0.35Q1138.8 0.35 1135.63-0.95 1132.45-2.25 1130.08-4.63 1127.7-7 1126.38-10.28 1125.05-13.55 1125.05-17.5L1125.05-17.5Q1125.05-21.45 1126.38-24.73 1127.7-28 1130.08-30.38 1132.45-32.75 1135.63-34.05 1138.8-35.35 1142.5-35.35L1142.5-35.35Q1145.95-35.35 1148.98-34.23 1152-33.1 1154.35-30.98 1156.7-28.85 1158.05-25.8L1158.05-25.8ZM1188.4-35L1192.4-35 1192.4 0 1188.35 0 1169.65-28.6 1169.65 0 1165.65 0 1165.65-35 1169.7-35 1188.4-6.45 1188.4-35ZM1223.85-35L1223.85-31.5 1204.9-31.5 1204.9-19.55 1219.15-19.55 1219.15-16.05 1204.9-16.05 1204.9-3.5 1223.85-3.5 1223.85 0 1200.9 0 1200.9-35 1223.85-35ZM1251.55-24.65L1251.55-24.65Q1251.55-27.8 1249.7-29.65 1247.85-31.5 1243.65-31.5L1243.65-31.5 1235.35-31.5 1235.35-17.8 1243.7-17.8Q1246.45-17.8 1248.17-18.65 1249.9-19.5 1250.72-21.05 1251.55-22.6 1251.55-24.65ZM1231.35-35L1243.65-35Q1247.75-35 1250.37-33.6 1253-32.2 1254.3-29.88 1255.6-27.55 1255.6-24.65L1255.6-24.65Q1255.6-22.6 1254.92-20.75 1254.25-18.9 1252.8-17.45 1251.35-16 1249.1-15.15 1246.85-14.3 1243.7-14.3L1243.7-14.3 1235.35-14.3 1235.35 0 1231.35 0 1231.35-35ZM1242.25-15.8L1246.55-15.8 1256.25 0 1251.7 0 1242.25-15.8Z" opacity="1" transform="matrix(1,0,0,1,0,0)" fill="#222222" class="wordmark-text-0" data-fill-palette-color="primary" id="text-0"></path></svg></g></svg></g></svg></g></svg></g><g><svg viewBox="0 0 27.033180623442153 27.033180623442153" height="27.033180623442153" width="27.033180623442153"><g><svg xmlns="http://www.w3.org/2000/svg" xmlns:xlink="http://www.w3.org/1999/xlink" version="1.1" x="0" y="0" viewBox="4.5 4 92 92" enable-background="new 0 0 100 100" xml:space="preserve" height="27.033180623442153" width="27.033180623442153" class="icon-icon-0" data-fill-palette-color="accent" id="icon-0"><path fill="#00cc66" d="M4.5 4V96H96.5V4zM50.5 10.472L83.336 76.143C75.634 85.797 63.781 92 50.5 92S25.366 85.797 17.665 76.143zM15.035 72.457A41.73 41.73 0 0 1 8.5 50C8.5 27.956 25.575 9.836 47.192 8.143zM53.808 8.143C75.425 9.836 92.5 27.956 92.5 50A41.73 41.73 0 0 1 85.965 72.457zM8.5 8H31.774A46.26 46.26 0 0 0 8.5 31.274zM12.981 76.564L8.5 85.527V68.726A46 46 0 0 0 12.981 76.564M9.736 92L15.713 80.046A46.2 46.2 0 0 0 31.774 92zM69.226 92A46.2 46.2 0 0 0 85.288 80.046L91.264 92zM92.5 85.527L88.019 76.564A46 46 0 0 0 92.5 68.725zM69.226 8H92.5V31.274A46.26 46.26 0 0 0 69.226 8" data-fill-palette-color="accent"></path></svg></g></svg></g></svg></g><defs></defs></svg><rect width="395.52" height="25.146341117069404" fill="none" stroke="none" visibility="hidden"></rect></g></svg></g></svg>