<svg xmlns="http://www.w3.org/2000/svg" version="1.1" xmlns:xlink="http://www.w3.org/1999/xlink" xmlns:svgjs="http://svgjs.dev/svgjs" width="2000" height="590" viewBox="0 0 2000 590"><g transform="matrix(1,0,0,1,22.91242271850615,-1.6417729007076218)"><svg viewBox="0 0 396 117" data-background-color="#121212" preserveAspectRatio="xMidYMid meet" height="590" width="2000" xmlns="http://www.w3.org/2000/svg" xmlns:xlink="http://www.w3.org/1999/xlink"><g id="tight-bounds" transform="matrix(1,0,0,1,0.2400000000000091,0.32557191420812615)"><svg viewBox="0 0 395.52 116.34885617158376" height="116.34885617158376" width="395.52"><g><svg viewBox="0 0 572.4284664159463 168.3894551667405" height="116.34885617158376" width="395.52"><g transform="matrix(1,0,0,1,176.90846641594632,0)"><svg viewBox="0 0 395.52 168.3894551667405" height="168.3894551667405" width="395.52"><g id="textblocktransform"><svg viewBox="0 0 395.52 168.3894551667405" height="168.3894551667405" width="395.52" id="textblock"><g><svg viewBox="0 0 395.52 168.3894551667405" height="168.3894551667405" width="395.52"><g transform="matrix(1,0,0,1,0,0)"><svg width="395.52" viewBox="-3.17 -36.08 93.59 40.42" height="168.3894551667405" data-palette-color="#ffffff"><path d="M13.13-32.08L13.13-11.11Q13.13-8.42 12.6-6.3 12.06-4.17 10.99-2.7 9.91-1.22 8.33-0.44 6.74 0.34 4.66 0.34L4.66 0.34Q3.71 0.34 2.78 0.21 1.86 0.07 0.83-0.24L0.83-0.24Q0.88-0.93 0.94-1.59 1-2.25 1.07-2.88L1.07-2.88Q1.12-3.25 1.35-3.49 1.59-3.74 2.05-3.74L2.05-3.74Q2.37-3.74 2.87-3.55 3.37-3.37 4.2-3.37L4.2-3.37Q6.4-3.37 7.54-5.18 8.69-6.98 8.69-11.01L8.69-11.01 8.69-32.08 13.13-32.08ZM36.33-11.69L36.33-11.69Q36.64-11.13 36.9-10.55 37.16-9.96 37.4-9.35L37.4-9.35Q37.64-9.99 37.9-10.57 38.16-11.16 38.45-11.69L38.45-11.69 49.78-31.35Q50.07-31.86 50.41-31.97 50.75-32.08 51.34-32.08L51.34-32.08 54.61-32.08 54.61 0 50.68 0 50.68-23.41Q50.68-23.9 50.72-24.5 50.75-25.1 50.8-25.71L50.8-25.71 39.35-5.59Q38.79-4.59 37.74-4.59L37.74-4.59 37.11-4.59Q36.06-4.59 35.5-5.59L35.5-5.59 23.78-25.68Q23.92-24.46 23.92-23.41L23.92-23.41 23.92 0 20.02 0 20.02-32.08 23.29-32.08Q23.87-32.08 24.2-31.97 24.53-31.86 24.85-31.32L24.85-31.32 36.33-11.69ZM86.42-32.08L86.42 0 81.95 0 81.95-14.55 66.57-14.55 66.57 0 62.1 0 62.1-32.08 66.57-32.08 66.57-17.8 81.95-17.8 81.95-32.08 86.42-32.08Z" opacity="1" transform="matrix(1,0,0,1,0,0)" fill="#ffffff" class="wordmark-text-0" data-fill-palette-color="primary" id="text-0"></path></svg></g></svg></g></svg></g></svg></g><g transform="matrix(1,0,0,1,0,12.087476383370259)"><svg viewBox="0 0 144.2145024 144.2145024" height="144.2145024" width="144.2145024"><g><svg xmlns="http://www.w3.org/2000/svg" xmlns:xlink="http://www.w3.org/1999/xlink" version="1.1" x="0" y="0" viewBox="4.5 4 92 92" enable-background="new 0 0 100 100" xml:space="preserve" height="144.2145024" width="144.2145024" class="icon-icon-0" data-fill-palette-color="accent" id="icon-0"><path fill="#00cc66" d="M4.5 4V96H96.5V4zM50.5 10.472L83.336 76.143C75.634 85.797 63.781 92 50.5 92S25.366 85.797 17.665 76.143zM15.035 72.457A41.73 41.73 0 0 1 8.5 50C8.5 27.956 25.575 9.836 47.192 8.143zM53.808 8.143C75.425 9.836 92.5 27.956 92.5 50A41.73 41.73 0 0 1 85.965 72.457zM8.5 8H31.774A46.26 46.26 0 0 0 8.5 31.274zM12.981 76.564L8.5 85.527V68.726A46 46 0 0 0 12.981 76.564M9.736 92L15.713 80.046A46.2 46.2 0 0 0 31.774 92zM69.226 92A46.2 46.2 0 0 0 85.288 80.046L91.264 92zM92.5 85.527L88.019 76.564A46 46 0 0 0 92.5 68.725zM69.226 8H92.5V31.274A46.26 46.26 0 0 0 69.226 8" data-fill-palette-color="accent"></path></svg></g></svg></g></svg></g><defs></defs></svg><rect width="395.52" height="116.34885617158376" fill="none" stroke="none" visibility="hidden"></rect></g></svg></g></svg>