<svg xmlns="http://www.w3.org/2000/svg" version="1.1" xmlns:xlink="http://www.w3.org/1999/xlink" xmlns:svgjs="http://svgjs.dev/svgjs" width="2000" height="565" viewBox="0 0 2000 565"><g transform="matrix(1,0,0,1,-1.2121212121212466,-1.8579763174336108)"><svg viewBox="0 0 396 112" data-background-color="#222222" preserveAspectRatio="xMidYMid meet" height="565" width="2000" xmlns="http://www.w3.org/2000/svg" xmlns:xlink="http://www.w3.org/1999/xlink"><g id="tight-bounds" transform="matrix(1,0,0,1,0.2400000000000091,0.36830680982754416)"><svg viewBox="0 0 395.52 111.2633863803449" height="111.2633863803449" width="395.52"><g><svg viewBox="0 0 594.5795826978035 167.2606640462428" height="111.2633863803449" width="395.52"><g transform="matrix(1,0,0,1,199.05958269780348,2.9450141040462654)"><svg viewBox="0 0 395.52 161.37063583815026" height="161.37063583815026" width="395.52"><g id="textblocktransform"><svg viewBox="0 0 395.52 161.37063583815026" height="161.37063583815026" width="395.52" id="textblock"><g><svg viewBox="0 0 395.52 161.37063583815026" height="161.37063583815026" width="395.52"><g transform="matrix(1,0,0,1,0,0)"><svg width="395.52" viewBox="-1.2000000000000002 -39 104.79 43.35" height="161.37063583815026" data-palette-color="#ffffff"><path d="M17.35-9.15L17.35-35 21.35-35 21.35-9.15Q21.35-6.4 20.15-4.25 18.95-2.1 16.82-0.88 14.7 0.35 11.85 0.35L11.85 0.35Q8.25 0.35 5.95-1.48 3.65-3.3 2.8-6.5L2.8-6.5 6.25-7.75Q6.6-6.45 7.28-5.4 7.95-4.35 9.08-3.75 10.2-3.15 11.85-3.15L11.85-3.15Q13.8-3.15 15-4.05 16.2-4.95 16.78-6.33 17.35-7.7 17.35-9.15L17.35-9.15ZM33.65-27.1L33.65 0 29.65 0 29.65-35 34.05-35 47.05-5.5 60-35 64.35-35 64.35 0 60.35 0 60.35-27.1 48.45 0 45.6 0 33.65-27.1ZM72.84 0L72.84-35 76.84-35 76.84-19.55 95.59-19.55 95.59-35 99.59-35 99.59 0 95.59 0 95.59-16.05 76.84-16.05 76.84 0 72.84 0Z" opacity="1" transform="matrix(1,0,0,1,0,0)" fill="#ffffff" class="wordmark-text-0" data-fill-palette-color="primary" id="text-0"></path></svg></g></svg></g></svg></g></svg></g><g><svg viewBox="0 0 167.2606640462428 167.2606640462428" height="167.2606640462428" width="167.2606640462428"><g><svg xmlns="http://www.w3.org/2000/svg" xmlns:xlink="http://www.w3.org/1999/xlink" version="1.1" x="0" y="0" viewBox="4.5 4 92 92" enable-background="new 0 0 100 100" xml:space="preserve" height="167.2606640462428" width="167.2606640462428" class="icon-icon-0" data-fill-palette-color="accent" id="icon-0"><path fill="#00cc66" d="M4.5 4V96H96.5V4zM50.5 10.472L83.336 76.143C75.634 85.797 63.781 92 50.5 92S25.366 85.797 17.665 76.143zM15.035 72.457A41.73 41.73 0 0 1 8.5 50C8.5 27.956 25.575 9.836 47.192 8.143zM53.808 8.143C75.425 9.836 92.5 27.956 92.5 50A41.73 41.73 0 0 1 85.965 72.457zM8.5 8H31.774A46.26 46.26 0 0 0 8.5 31.274zM12.981 76.564L8.5 85.527V68.726A46 46 0 0 0 12.981 76.564M9.736 92L15.713 80.046A46.2 46.2 0 0 0 31.774 92zM69.226 92A46.2 46.2 0 0 0 85.288 80.046L91.264 92zM92.5 85.527L88.019 76.564A46 46 0 0 0 92.5 68.725zM69.226 8H92.5V31.274A46.26 46.26 0 0 0 69.226 8" data-fill-palette-color="accent"></path></svg></g></svg></g></svg></g><defs></defs></svg><rect width="395.52" height="111.2633863803449" fill="none" stroke="none" visibility="hidden"></rect></g></svg></g></svg>