<svg xmlns="http://www.w3.org/2000/svg" version="1.1" xmlns:xlink="http://www.w3.org/1999/xlink" xmlns:svgjs="http://svgjs.dev/svgjs" width="2000" height="181" viewBox="0 0 2000 181"><g transform="matrix(1,0,0,1,-1.2121212121212466,-1.4092183376209562)"><svg viewBox="0 0 396 36" data-background-color="#121212" preserveAspectRatio="xMidYMid meet" height="181" width="2000" xmlns="http://www.w3.org/2000/svg" xmlns:xlink="http://www.w3.org/1999/xlink"><g id="tight-bounds" transform="matrix(1,0,0,1,0.2400000000000091,0.2802865201898044)"><svg viewBox="0 0 395.52 35.43942695962037" height="35.43942695962037" width="395.52"><g><svg viewBox="0 0 438.1048462844947 39.25511908514123" height="35.43942695962037" width="395.52"><g transform="matrix(1,0,0,1,42.58484628449473,11.071965440008144)"><svg viewBox="0 0 395.52 17.111188205124943" height="17.111188205124943" width="395.52"><g id="textblocktransform"><svg viewBox="0 0 395.52 17.111188205124943" height="17.111188205124943" width="395.52" id="textblock"><g><svg viewBox="0 0 395.52 17.111188205124943" height="17.111188205124943" width="395.52"><g transform="matrix(1,0,0,1,0,0)"><svg width="395.52" viewBox="-3.17 -36.45 921.7299999999999 40.84" height="17.111188205124943" data-palette-color="#ffffff"><path d="M13.13-32.08L13.13-11.11Q13.13-8.42 12.6-6.3 12.06-4.17 10.99-2.7 9.91-1.22 8.33-0.44 6.74 0.34 4.66 0.34L4.66 0.34Q3.71 0.34 2.78 0.21 1.86 0.07 0.83-0.24L0.83-0.24Q0.88-0.93 0.94-1.59 1-2.25 1.07-2.88L1.07-2.88Q1.12-3.25 1.35-3.49 1.59-3.74 2.05-3.74L2.05-3.74Q2.37-3.74 2.87-3.55 3.37-3.37 4.2-3.37L4.2-3.37Q6.4-3.37 7.54-5.18 8.69-6.98 8.69-11.01L8.69-11.01 8.69-32.08 13.13-32.08ZM47.29-16.04L47.29-16.04Q47.29-12.43 46.23-9.42 45.16-6.42 43.22-4.25 41.28-2.08 38.56-0.87 35.84 0.34 32.52 0.34L32.52 0.34Q29.22 0.34 26.49-0.87 23.75-2.08 21.8-4.25 19.85-6.42 18.77-9.42 17.7-12.43 17.7-16.04L17.7-16.04Q17.7-19.63 18.77-22.64 19.85-25.66 21.8-27.84 23.75-30.03 26.49-31.24 29.22-32.45 32.52-32.45L32.52-32.45Q35.84-32.45 38.56-31.24 41.28-30.03 43.22-27.84 45.16-25.66 46.23-22.64 47.29-19.63 47.29-16.04ZM42.75-16.04L42.75-16.04Q42.75-18.97 42.03-21.3 41.31-23.63 39.98-25.26 38.64-26.88 36.75-27.75 34.86-28.61 32.52-28.61L32.52-28.61Q30.17-28.61 28.28-27.75 26.39-26.88 25.05-25.26 23.7-23.63 22.98-21.3 22.26-18.97 22.26-16.04L22.26-16.04Q22.26-13.11 22.98-10.78 23.7-8.45 25.05-6.82 26.39-5.2 28.28-4.35 30.17-3.49 32.52-3.49L32.52-3.49Q34.86-3.49 36.75-4.35 38.64-5.2 39.98-6.82 41.31-8.45 42.03-10.78 42.75-13.11 42.75-16.04ZM52.58-32.08L71.33-32.08 71.33-28.47 57.05-28.47 57.05-17.94 68.55-17.94 68.55-14.45 57.05-14.45 57.05-3.61 71.36-3.61 71.33 0 52.58 0 52.58-32.08ZM105.14-11.69L105.14-11.69Q105.46-11.13 105.72-10.55 105.97-9.96 106.22-9.35L106.22-9.35Q106.46-9.99 106.72-10.57 106.97-11.16 107.27-11.69L107.27-11.69 118.59-31.35Q118.89-31.86 119.23-31.97 119.57-32.08 120.16-32.08L120.16-32.08 123.43-32.08 123.43 0 119.5 0 119.5-23.41Q119.5-23.9 119.53-24.5 119.57-25.1 119.62-25.71L119.62-25.71 108.17-5.59Q107.61-4.59 106.56-4.59L106.56-4.59 105.92-4.59Q104.87-4.59 104.31-5.59L104.31-5.59 92.59-25.68Q92.74-24.46 92.74-23.41L92.74-23.41 92.74 0 88.83 0 88.83-32.08 92.1-32.08Q92.69-32.08 93.02-31.97 93.35-31.86 93.67-31.32L93.67-31.32 105.14-11.69ZM131.04-32.08L149.79-32.08 149.79-28.47 135.51-28.47 135.51-17.94 147.01-17.94 147.01-14.45 135.51-14.45 135.51-3.61 149.82-3.61 149.79 0 131.04 0 131.04-32.08ZM157.85-32.08L157.85-32.08Q158.41-32.08 158.7-31.95 158.99-31.81 159.36-31.32L159.36-31.32 176.79-7.32Q176.74-7.91 176.71-8.48 176.67-9.06 176.67-9.55L176.67-9.55 176.67-32.08 180.58-32.08 180.58 0 178.33 0Q177.82 0 177.46-0.17 177.11-0.34 176.77-0.78L176.77-0.78 159.34-24.71Q159.38-24.15 159.41-23.63 159.43-23.12 159.43-22.66L159.43-22.66 159.43 0 155.53 0 155.53-32.08 157.85-32.08ZM213.29-16.04L213.29-16.04Q213.29-12.43 212.23-9.47 211.16-6.52 209.25-4.41 207.33-2.29 204.63-1.15 201.94 0 198.66 0L198.66 0 187.58 0 187.58-32.08 198.66-32.08Q201.94-32.08 204.63-30.92 207.33-29.76 209.25-27.66 211.16-25.56 212.23-22.6 213.29-19.63 213.29-16.04ZM208.72-16.04L208.72-16.04Q208.72-18.97 208.01-21.28 207.31-23.58 205.99-25.2 204.67-26.81 202.81-27.65 200.96-28.49 198.66-28.49L198.66-28.49 192.05-28.49 192.05-3.59 198.66-3.59Q200.96-3.59 202.81-4.43 204.67-5.27 205.99-6.87 207.31-8.47 208.01-10.79 208.72-13.11 208.72-16.04ZM218.49-32.08L237.24-32.08 237.24-28.47 222.95-28.47 222.95-17.94 234.45-17.94 234.45-14.45 222.95-14.45 222.95-3.61 237.26-3.61 237.24 0 218.49 0 218.49-32.08ZM241.55-32.08L261.57-32.08 261.57-30.44Q261.57-29.66 261.11-28.98L261.11-28.98 246.1-3.61 261.26-3.61 261.26 0 240.72 0 240.72-1.73Q240.72-2.1 240.85-2.42 240.97-2.73 241.16-3.03L241.16-3.03 256.15-28.47 241.55-28.47 241.55-32.08ZM264.6-12.3L264.6-15.94 276.27-15.94 276.27-12.3 264.6-12.3ZM305.81-32.08L305.81 0 301.34 0 301.34-14.55 285.96-14.55 285.96 0 281.49 0 281.49-32.08 285.96-32.08 285.96-17.8 301.34-17.8 301.34-32.08 305.81-32.08ZM325.26-3.52L325.26-3.52Q327.19-3.52 328.72-4.19 330.24-4.86 331.29-6.07 332.34-7.28 332.89-8.94 333.44-10.6 333.44-12.6L333.44-12.6 333.44-32.08 337.89-32.08 337.89-12.6Q337.89-9.81 337.01-7.45 336.13-5.08 334.5-3.34 332.88-1.61 330.54-0.62 328.19 0.37 325.26 0.37L325.26 0.37Q322.33 0.37 320-0.62 317.67-1.61 316.03-3.34 314.4-5.08 313.52-7.45 312.64-9.81 312.64-12.6L312.64-12.6 312.64-32.08 317.08-32.08 317.08-12.62Q317.08-10.62 317.63-8.95 318.18-7.28 319.23-6.07 320.28-4.86 321.81-4.19 323.33-3.52 325.26-3.52ZM370.23-3.1L370.23-3.1Q367.89-1.37 365.24-0.51 362.59 0.34 359.49 0.34L359.49 0.34Q355.75 0.34 352.74-0.85 349.72-2.05 347.6-4.21 345.48-6.37 344.33-9.39 343.18-12.4 343.18-16.04L343.18-16.04Q343.18-19.7 344.29-22.72 345.4-25.73 347.47-27.89 349.53-30.05 352.46-31.25 355.39-32.45 359.03-32.45L359.03-32.45Q360.88-32.45 362.46-32.17 364.03-31.88 365.37-31.36 366.72-30.83 367.85-30.08 368.99-29.32 369.96-28.39L369.96-28.39 368.72-26.39Q368.42-25.9 367.94-25.78 367.45-25.66 366.89-26L366.89-26Q366.32-26.32 365.65-26.77 364.98-27.22 364.05-27.62 363.13-28.03 361.86-28.32 360.59-28.61 358.85-28.61L358.85-28.61Q356.32-28.61 354.25-27.73 352.19-26.86 350.74-25.22 349.28-23.58 348.5-21.25 347.72-18.92 347.72-16.04L347.72-16.04Q347.72-13.04 348.54-10.66 349.36-8.28 350.88-6.63 352.41-4.98 354.56-4.11 356.71-3.25 359.37-3.25L359.37-3.25Q361.42-3.25 363.03-3.72 364.64-4.2 366.2-5.05L366.2-5.05 366.2-12.08 361.59-12.08Q361.15-12.08 360.88-12.33 360.61-12.57 360.61-12.94L360.61-12.94 360.61-15.45 370.23-15.45 370.23-3.1ZM400.58-32.08L400.58 0 396.11 0 396.11-14.55 380.73-14.55 380.73 0 376.26 0 376.26-32.08 380.73-32.08 380.73-17.8 396.11-17.8 396.11-32.08 400.58-32.08ZM407.53-32.08L426.28-32.08 426.28-28.47 412-28.47 412-17.94 423.5-17.94 423.5-14.45 412-14.45 412-3.61 426.31-3.61 426.28 0 407.53 0 407.53-32.08ZM448.96-29.1L447.86-27.03Q447.49-26.34 446.86-26.34L446.86-26.34Q446.49-26.34 445.99-26.72 445.49-27.1 444.77-27.55 444.05-28 443.04-28.38 442.03-28.76 440.61-28.76L440.61-28.76Q439.27-28.76 438.25-28.38 437.24-28 436.57-27.33 435.9-26.66 435.56-25.77 435.21-24.88 435.21-23.85L435.21-23.85Q435.21-22.51 435.84-21.63 436.46-20.75 437.47-20.13 438.49-19.51 439.78-19.04 441.07-18.58 442.42-18.09 443.76-17.6 445.05-16.98 446.35-16.36 447.36-15.42 448.37-14.48 449-13.11 449.62-11.74 449.62-9.77L449.62-9.77Q449.62-7.64 448.93-5.8 448.25-3.96 446.94-2.59 445.64-1.22 443.73-0.44 441.83 0.34 439.39 0.34L439.39 0.34Q436.43 0.34 433.96-0.79 431.48-1.93 429.75-3.86L429.75-3.86 431.04-5.96Q431.21-6.23 431.47-6.38 431.72-6.54 432.06-6.54L432.06-6.54Q432.53-6.54 433.1-6.04 433.68-5.54 434.53-4.94 435.38-4.35 436.59-3.85 437.8-3.34 439.49-3.34L439.49-3.34Q440.9-3.34 442-3.76 443.1-4.17 443.87-4.93 444.64-5.69 445.04-6.75 445.44-7.81 445.44-9.11L445.44-9.11Q445.44-10.55 444.82-11.47 444.2-12.4 443.19-13.02 442.17-13.65 440.88-14.07 439.58-14.5 438.24-14.97 436.9-15.43 435.6-16.03 434.31-16.63 433.3-17.6 432.28-18.58 431.66-20.02 431.04-21.46 431.04-23.61L431.04-23.61Q431.04-25.29 431.67-26.89 432.31-28.49 433.52-29.72 434.73-30.96 436.5-31.7 438.27-32.45 440.56-32.45L440.56-32.45Q443.12-32.45 445.26-31.59 447.4-30.74 448.96-29.1L448.96-29.1ZM454.86 0L454.86 0ZM461.04-2.61L461.04-2.61Q461.04-2 460.8-1.45 460.55-0.9 460.13-0.5 459.7-0.1 459.15 0.15 458.6 0.39 457.99 0.39L457.99 0.39Q457.38 0.39 456.84 0.15 456.31-0.1 455.9-0.5 455.5-0.9 455.26-1.45 455.01-2 455.01-2.61L455.01-2.61Q455.01-3.25 455.26-3.8 455.5-4.35 455.9-4.76 456.31-5.18 456.84-5.42 457.38-5.66 457.99-5.66L457.99-5.66Q458.6-5.66 459.15-5.42 459.7-5.18 460.13-4.76 460.55-4.35 460.8-3.8 461.04-3.25 461.04-2.61ZM460.9-19.17L460.9-19.17Q460.9-18.55 460.65-18.01 460.41-17.46 459.98-17.05 459.55-16.65 459-16.41 458.45-16.16 457.84-16.16L457.84-16.16Q457.23-16.16 456.7-16.41 456.16-16.65 455.76-17.05 455.35-17.46 455.11-18.01 454.86-18.55 454.86-19.17L454.86-19.17Q454.86-19.8 455.11-20.35 455.35-20.9 455.76-21.31 456.16-21.73 456.7-21.97 457.23-22.22 457.84-22.22L457.84-22.22Q458.45-22.22 459-21.97 459.55-21.73 459.98-21.31 460.41-20.9 460.65-20.35 460.9-19.8 460.9-19.17ZM496.61-29.1L495.51-27.03Q495.14-26.34 494.51-26.34L494.51-26.34Q494.14-26.34 493.64-26.72 493.14-27.1 492.42-27.55 491.7-28 490.69-28.38 489.67-28.76 488.26-28.76L488.26-28.76Q486.92-28.76 485.9-28.38 484.89-28 484.22-27.33 483.55-26.66 483.2-25.77 482.86-24.88 482.86-23.85L482.86-23.85Q482.86-22.51 483.49-21.63 484.11-20.75 485.12-20.13 486.13-19.51 487.43-19.04 488.72-18.58 490.06-18.09 491.41-17.6 492.7-16.98 494-16.36 495.01-15.42 496.02-14.48 496.64-13.11 497.27-11.74 497.27-9.77L497.27-9.77Q497.27-7.64 496.58-5.8 495.9-3.96 494.59-2.59 493.29-1.22 491.38-0.44 489.48 0.34 487.04 0.34L487.04 0.34Q484.08 0.34 481.61-0.79 479.13-1.93 477.39-3.86L477.39-3.86 478.69-5.96Q478.86-6.23 479.12-6.38 479.37-6.54 479.71-6.54L479.71-6.54Q480.18-6.54 480.75-6.04 481.32-5.54 482.18-4.94 483.03-4.35 484.24-3.85 485.45-3.34 487.14-3.34L487.14-3.34Q488.55-3.34 489.65-3.76 490.75-4.17 491.52-4.93 492.29-5.69 492.69-6.75 493.09-7.81 493.09-9.11L493.09-9.11Q493.09-10.55 492.47-11.47 491.85-12.4 490.83-13.02 489.82-13.65 488.53-14.07 487.23-14.5 485.89-14.97 484.55-15.43 483.25-16.03 481.96-16.63 480.95-17.6 479.93-18.58 479.31-20.02 478.69-21.46 478.69-23.61L478.69-23.61Q478.69-25.29 479.32-26.89 479.96-28.49 481.17-29.72 482.37-30.96 484.14-31.7 485.91-32.45 488.21-32.45L488.21-32.45Q490.77-32.45 492.91-31.59 495.05-30.74 496.61-29.1L496.61-29.1ZM502.56-32.08L521.31-32.08 521.31-28.47 507.03-28.47 507.03-17.94 518.53-17.94 518.53-14.45 507.03-14.45 507.03-3.61 521.34-3.61 521.31 0 502.56 0 502.56-32.08ZM529.37-32.08L529.37-32.08Q529.93-32.08 530.22-31.95 530.51-31.81 530.88-31.32L530.88-31.32 548.31-7.32Q548.26-7.91 548.23-8.48 548.19-9.06 548.19-9.55L548.19-9.55 548.19-32.08 552.1-32.08 552.1 0 549.85 0Q549.34 0 548.98-0.17 548.63-0.34 548.29-0.78L548.29-0.78 530.86-24.71Q530.9-24.15 530.93-23.63 530.95-23.12 530.95-22.66L530.95-22.66 530.95 0 527.05 0 527.05-32.08 529.37-32.08ZM564.23-32.08L564.23 0 559.78 0 559.78-32.08 564.23-32.08ZM599.65-16.04L599.65-16.04Q599.65-12.43 598.59-9.42 597.53-6.42 595.58-4.25 593.64-2.08 590.92-0.87 588.2 0.34 584.88 0.34L584.88 0.34Q581.58 0.34 578.85-0.87 576.11-2.08 574.16-4.25 572.21-6.42 571.13-9.42 570.06-12.43 570.06-16.04L570.06-16.04Q570.06-19.63 571.13-22.64 572.21-25.66 574.16-27.84 576.11-30.03 578.85-31.24 581.58-32.45 584.88-32.45L584.88-32.45Q588.2-32.45 590.92-31.24 593.64-30.03 595.58-27.84 597.53-25.66 598.59-22.64 599.65-19.63 599.65-16.04ZM595.11-16.04L595.11-16.04Q595.11-18.97 594.39-21.3 593.67-23.63 592.34-25.26 591.01-26.88 589.11-27.75 587.22-28.61 584.88-28.61L584.88-28.61Q582.54-28.61 580.64-27.75 578.75-26.88 577.41-25.26 576.07-23.63 575.35-21.3 574.63-18.97 574.63-16.04L574.63-16.04Q574.63-13.11 575.35-10.78 576.07-8.45 577.41-6.82 578.75-5.2 580.64-4.35 582.54-3.49 584.88-3.49L584.88-3.49Q587.22-3.49 589.11-4.35 591.01-5.2 592.34-6.82 593.67-8.45 594.39-10.78 595.11-13.11 595.11-16.04ZM612.42-13.33L609.44-13.33 609.44 0 604.99 0 604.99-32.08 613.78-32.08Q616.71-32.08 618.85-31.46 620.98-30.83 622.36-29.68 623.74-28.52 624.4-26.87 625.06-25.22 625.06-23.17L625.06-23.17Q625.06-21.48 624.56-20.02 624.06-18.55 623.12-17.38 622.18-16.21 620.81-15.37 619.45-14.53 617.71-14.09L617.71-14.09Q618.13-13.82 618.49-13.49 618.86-13.16 619.2-12.7L619.2-12.7 627.82 0 623.87 0Q622.72 0 622.08-0.9L622.08-0.9 614.49-12.33Q614.12-12.87 613.7-13.1 613.27-13.33 612.42-13.33L612.42-13.33ZM609.44-28.59L609.44-16.58 613.61-16.58Q615.37-16.58 616.7-17.03 618.03-17.48 618.93-18.31 619.84-19.14 620.29-20.3 620.74-21.46 620.74-22.85L620.74-22.85Q620.74-28.59 613.78-28.59L613.78-28.59 609.44-28.59ZM655.89-3.52L655.89-3.52Q657.82-3.52 659.35-4.19 660.87-4.86 661.92-6.07 662.97-7.28 663.52-8.94 664.07-10.6 664.07-12.6L664.07-12.6 664.07-32.08 668.51-32.08 668.51-12.6Q668.51-9.81 667.64-7.45 666.76-5.08 665.13-3.34 663.51-1.61 661.17-0.62 658.82 0.37 655.89 0.37L655.89 0.37Q652.96 0.37 650.63-0.62 648.3-1.61 646.66-3.34 645.03-5.08 644.15-7.45 643.27-9.81 643.27-12.6L643.27-12.6 643.27-32.08 647.71-32.08 647.71-12.62Q647.71-10.62 648.26-8.95 648.81-7.28 649.86-6.07 650.91-4.86 652.44-4.19 653.96-3.52 655.89-3.52ZM672.2 0L681.87-16.46 672.59-32.08 677.01-32.08Q677.5-32.08 677.72-31.91 677.94-31.74 678.13-31.47L678.13-31.47 685.19-18.97Q685.36-19.38 685.58-19.7L685.58-19.7 692.07-31.4Q692.27-31.71 692.5-31.9 692.73-32.08 693.07-32.08L693.07-32.08 697.32-32.08 687.99-16.7 697.61 0 693.19 0Q692.71 0 692.44-0.27 692.17-0.54 691.97-0.83L691.97-0.83 684.72-13.92Q684.6-13.55 684.43-13.31L684.43-13.31 677.5-0.83Q677.3-0.51 677.03-0.26 676.76 0 676.35 0L676.35 0 672.2 0ZM738.28-16.04L738.28-16.04Q738.28-12.43 737.22-9.47 736.16-6.52 734.24-4.41 732.32-2.29 729.63-1.15 726.93 0 723.66 0L723.66 0 712.57 0 712.57-32.08 723.66-32.08Q726.93-32.08 729.63-30.92 732.32-29.76 734.24-27.66 736.16-25.56 737.22-22.6 738.28-19.63 738.28-16.04ZM733.72-16.04L733.72-16.04Q733.72-18.97 733.01-21.28 732.3-23.58 730.98-25.2 729.66-26.81 727.81-27.65 725.95-28.49 723.66-28.49L723.66-28.49 717.04-28.49 717.04-3.59 723.66-3.59Q725.95-3.59 727.81-4.43 729.66-5.27 730.98-6.87 732.3-8.47 733.01-10.79 733.72-13.11 733.72-16.04ZM743.48-32.08L762.23-32.08 762.23-28.47 747.95-28.47 747.95-17.94 759.45-17.94 759.45-14.45 747.95-14.45 747.95-3.61 762.25-3.61 762.23 0 743.48 0 743.48-32.08ZM784.91-29.1L783.81-27.03Q783.44-26.34 782.81-26.34L782.81-26.34Q782.44-26.34 781.94-26.72 781.44-27.1 780.72-27.55 780-28 778.99-28.38 777.97-28.76 776.56-28.76L776.56-28.76Q775.22-28.76 774.2-28.38 773.19-28 772.52-27.33 771.85-26.66 771.5-25.77 771.16-24.88 771.16-23.85L771.16-23.85Q771.16-22.51 771.79-21.63 772.41-20.75 773.42-20.13 774.43-19.51 775.73-19.04 777.02-18.58 778.36-18.09 779.71-17.6 781-16.98 782.3-16.36 783.31-15.42 784.32-14.48 784.94-13.11 785.57-11.74 785.57-9.77L785.57-9.77Q785.57-7.64 784.88-5.8 784.2-3.96 782.89-2.59 781.59-1.22 779.68-0.44 777.78 0.34 775.34 0.34L775.34 0.34Q772.38 0.34 769.91-0.79 767.43-1.93 765.69-3.86L765.69-3.86 766.99-5.96Q767.16-6.23 767.42-6.38 767.67-6.54 768.01-6.54L768.01-6.54Q768.48-6.54 769.05-6.04 769.62-5.54 770.48-4.94 771.33-4.35 772.54-3.85 773.75-3.34 775.44-3.34L775.44-3.34Q776.85-3.34 777.95-3.76 779.05-4.17 779.82-4.93 780.59-5.69 780.99-6.75 781.39-7.81 781.39-9.11L781.39-9.11Q781.39-10.55 780.77-11.47 780.15-12.4 779.13-13.02 778.12-13.65 776.83-14.07 775.53-14.5 774.19-14.97 772.85-15.43 771.55-16.03 770.26-16.63 769.25-17.6 768.23-18.58 767.61-20.02 766.99-21.46 766.99-23.61L766.99-23.61Q766.99-25.29 767.62-26.89 768.26-28.49 769.47-29.72 770.67-30.96 772.44-31.7 774.21-32.45 776.51-32.45L776.51-32.45Q779.07-32.45 781.21-31.59 783.35-30.74 784.91-29.1L784.91-29.1ZM795.84-32.08L795.84 0 791.4 0 791.4-32.08 795.84-32.08ZM828.85-3.1L828.85-3.1Q826.5-1.37 823.86-0.51 821.21 0.34 818.11 0.34L818.11 0.34Q814.37 0.34 811.36-0.85 808.34-2.05 806.22-4.21 804.09-6.37 802.94-9.39 801.8-12.4 801.8-16.04L801.8-16.04Q801.8-19.7 802.91-22.72 804.02-25.73 806.08-27.89 808.15-30.05 811.07-31.25 814-32.45 817.64-32.45L817.64-32.45Q819.5-32.45 821.07-32.17 822.65-31.88 823.99-31.36 825.33-30.83 826.47-30.08 827.6-29.32 828.58-28.39L828.58-28.39 827.33-26.39Q827.04-25.9 826.55-25.78 826.06-25.66 825.5-26L825.5-26Q824.94-26.32 824.27-26.77 823.6-27.22 822.67-27.62 821.74-28.03 820.47-28.32 819.2-28.61 817.47-28.61L817.47-28.61Q814.93-28.61 812.87-27.73 810.81-26.86 809.35-25.22 807.9-23.58 807.12-21.25 806.34-18.92 806.34-16.04L806.34-16.04Q806.34-13.04 807.16-10.66 807.97-8.28 809.5-6.63 811.03-4.98 813.17-4.11 815.32-3.25 817.98-3.25L817.98-3.25Q820.03-3.25 821.65-3.72 823.26-4.2 824.82-5.05L824.82-5.05 824.82-12.08 820.21-12.08Q819.77-12.08 819.5-12.33 819.23-12.57 819.23-12.94L819.23-12.94 819.23-15.45 828.85-15.45 828.85-3.1ZM837.39-32.08L837.39-32.08Q837.95-32.08 838.25-31.95 838.54-31.81 838.9-31.32L838.9-31.32 856.34-7.32Q856.29-7.91 856.25-8.48 856.21-9.06 856.21-9.55L856.21-9.55 856.21-32.08 860.12-32.08 860.12 0 857.87 0Q857.36 0 857.01-0.17 856.65-0.34 856.31-0.78L856.31-0.78 838.88-24.71Q838.93-24.15 838.95-23.63 838.98-23.12 838.98-22.66L838.98-22.66 838.98 0 835.07 0 835.07-32.08 837.39-32.08ZM867.27-32.08L886.02-32.08 886.02-28.47 871.74-28.47 871.74-17.94 883.24-17.94 883.24-14.45 871.74-14.45 871.74-3.61 886.05-3.61 886.02 0 867.27 0 867.27-32.08ZM899.15-13.33L896.17-13.33 896.17 0 891.73 0 891.73-32.08 900.52-32.08Q903.45-32.08 905.59-31.46 907.72-30.83 909.1-29.68 910.48-28.52 911.14-26.87 911.8-25.22 911.8-23.17L911.8-23.17Q911.8-21.48 911.3-20.02 910.8-18.55 909.86-17.38 908.92-16.21 907.55-15.37 906.18-14.53 904.45-14.09L904.45-14.09Q904.87-13.82 905.23-13.49 905.6-13.16 905.94-12.7L905.94-12.7 914.56 0 910.6 0Q909.46 0 908.82-0.9L908.82-0.9 901.23-12.33Q900.86-12.87 900.43-13.1 900.01-13.33 899.15-13.33L899.15-13.33ZM896.17-28.59L896.17-16.58 900.35-16.58Q902.11-16.58 903.44-17.03 904.77-17.48 905.67-18.31 906.58-19.14 907.03-20.3 907.48-21.46 907.48-22.85L907.48-22.85Q907.48-28.59 900.52-28.59L900.52-28.59 896.17-28.59Z" opacity="1" transform="matrix(1,0,0,1,0,0)" fill="#ffffff" class="wordmark-text-0" data-fill-palette-color="primary" id="text-0"></path></svg></g></svg></g></svg></g></svg></g><g><svg viewBox="0 0 39.25511908514123 39.25511908514123" height="39.25511908514123" width="39.25511908514123"><g><svg xmlns="http://www.w3.org/2000/svg" xmlns:xlink="http://www.w3.org/1999/xlink" version="1.1" x="0" y="0" viewBox="4.5 4 92 92" enable-background="new 0 0 100 100" xml:space="preserve" height="39.25511908514123" width="39.25511908514123" class="icon-icon-0" data-fill-palette-color="accent" id="icon-0"><path fill="#00cc66" d="M4.5 4V96H96.5V4zM50.5 10.472L83.336 76.143C75.634 85.797 63.781 92 50.5 92S25.366 85.797 17.665 76.143zM15.035 72.457A41.73 41.73 0 0 1 8.5 50C8.5 27.956 25.575 9.836 47.192 8.143zM53.808 8.143C75.425 9.836 92.5 27.956 92.5 50A41.73 41.73 0 0 1 85.965 72.457zM8.5 8H31.774A46.26 46.26 0 0 0 8.5 31.274zM12.981 76.564L8.5 85.527V68.726A46 46 0 0 0 12.981 76.564M9.736 92L15.713 80.046A46.2 46.2 0 0 0 31.774 92zM69.226 92A46.2 46.2 0 0 0 85.288 80.046L91.264 92zM92.5 85.527L88.019 76.564A46 46 0 0 0 92.5 68.725zM69.226 8H92.5V31.274A46.26 46.26 0 0 0 69.226 8" data-fill-palette-color="accent"></path></svg></g></svg></g></svg></g><defs></defs></svg><rect width="395.52" height="35.43942695962037" fill="none" stroke="none" visibility="hidden"></rect></g></svg></g></svg>